<?xml version="1.0" encoding="iso-8859-1"?>
<!-- Uploaded to: SVG Repo, www.svgrepo.com, Generator: SVG Repo Mixer Tools -->
<svg height="800px" width="800px" version="1.1" id="Layer_1" xmlns="http://www.w3.org/2000/svg" xmlns:xlink="http://www.w3.org/1999/xlink" 
	 viewBox="0 0 512 512" xml:space="preserve">
<g transform="translate(1 1)">
	<path style="fill:#FFE100;" d="M476.867,255c0,136.533-110.933,247.467-247.467,247.467C115.053,502.467,7.533,391.533,7.533,255
		S115.053,7.533,229.4,7.533C365.933,7.533,476.867,118.467,476.867,255"/>
	<path style="fill:#FFA800;" d="M255,7.533c-4.267,0-8.533,0-12.8,0C372.76,14.36,476.867,122.733,476.867,255
		S372.76,495.64,242.2,502.467c4.267,0,8.533,0,12.8,0c136.533,0,247.467-110.933,247.467-247.467S391.533,7.533,255,7.533"/>
	<path style="fill:#FFFFFF;" d="M255,502.467c4.267,0,8.533,0,12.8,0C137.24,495.64,33.133,387.267,33.133,255
		S137.24,14.36,267.8,7.533c-4.267,0-8.533,0-12.8,0C118.467,7.533,7.533,118.467,7.533,255S118.467,502.467,255,502.467"/>
	<path style="fill:#FFE100;" d="M255,434.2c-98.987,0-179.2-80.213-179.2-179.2S156.013,75.8,255,75.8S434.2,156.013,434.2,255
		S353.987,434.2,255,434.2"/>
	<path style="fill:#63D3FD;" d="M323.267,297.667c1.707,0-17.067-18.773-17.067-42.667s18.773-42.667,17.067-42.667
		c23.893,0,42.667,18.773,42.667,42.667S347.16,297.667,323.267,297.667"/>
	<path style="fill:#3DB9F9;" d="M348.867,212.333c-4.267,0-8.533,0.853-12.8,2.56c17.067,5.12,29.867,21.333,29.867,40.107
		s-12.8,34.987-29.867,40.107c4.267,1.707,8.533,2.56,12.8,2.56c23.893,0,42.667-18.773,42.667-42.667
		S372.76,212.333,348.867,212.333"/>
	<path style="fill:#63D3FD;" d="M161.133,297.667c-23.893,0-42.667-18.773-42.667-42.667s18.773-42.667,42.667-42.667
		S203.8,231.107,203.8,255S185.027,297.667,161.133,297.667"/>
	<path style="fill:#3DB9F9;" d="M161.133,212.333c-4.267,0-8.533,0.853-12.8,2.56C165.4,220.013,178.2,236.227,178.2,255
		s-12.8,34.987-29.867,40.107c4.267,1.707,8.533,2.56,12.8,2.56c23.893,0,42.667-18.773,42.667-42.667
		S185.027,212.333,161.133,212.333"/>
	<path d="M255,511C114.2,511-1,395.8-1,255S114.2-1,255-1s256,115.2,256,256S395.8,511,255,511z M255,16.067
		C123.587,16.067,16.067,123.587,16.067,255S123.587,493.933,255,493.933S493.933,386.413,493.933,255S386.413,16.067,255,16.067z"
		/>
	<path d="M255,442.733c-103.253,0-187.733-84.48-187.733-187.733S151.747,67.267,255,67.267S442.733,151.747,442.733,255
		S358.253,442.733,255,442.733z M255,84.333c-93.867,0-170.667,76.8-170.667,170.667S161.133,425.667,255,425.667
		S425.667,348.867,425.667,255S348.867,84.333,255,84.333z"/>
	<path d="M348.867,306.2c-28.16,0-51.2-23.04-51.2-51.2s23.04-51.2,51.2-51.2c28.16,0,51.2,23.04,51.2,51.2
		S377.027,306.2,348.867,306.2z M348.867,220.867c-18.773,0-34.133,15.36-34.133,34.133s15.36,34.133,34.133,34.133
		C367.64,289.133,383,273.773,383,255S367.64,220.867,348.867,220.867z"/>
	<path d="M161.133,306.2c-28.16,0-51.2-23.04-51.2-51.2s23.04-51.2,51.2-51.2s51.2,23.04,51.2,51.2S189.293,306.2,161.133,306.2z
		 M161.133,220.867C142.36,220.867,127,236.227,127,255s15.36,34.133,34.133,34.133s34.133-15.36,34.133-34.133
		S179.907,220.867,161.133,220.867z"/>
	<path d="M348.867,263.533H161.133c-5.12,0-8.533-3.413-8.533-8.533s3.413-8.533,8.533-8.533h187.733
		c5.12,0,8.533,3.413,8.533,8.533S353.987,263.533,348.867,263.533z"/>
</g>
</svg>