<?xml version="1.0" standalone="no"?>
<!DOCTYPE svg PUBLIC "-//W3C//DTD SVG 20010904//EN"
 "http://www.w3.org/TR/2001/REC-SVG-20010904/DTD/svg10.dtd">
<svg version="1.0" xmlns="http://www.w3.org/2000/svg"
 width="2250.000000pt" height="1796.000000pt" viewBox="0 0 2250.000000 1796.000000"
 preserveAspectRatio="xMidYMid meet">

<g transform="translate(0.000000,1796.000000) scale(0.100000,-0.100000)"
fill="#000000" stroke="none">
<path d="M8008 17400 c36 -38 78 -54 45 -18 -10 11 -31 27 -48 35 l-30 16 33
-33z"/>
<path d="M6957 17329 c7 -7 15 -10 18 -7 3 3 -2 9 -12 12 -14 6 -15 5 -6 -5z"/>
<path d="M8100 17258 c0 -7 5 -20 10 -28 8 -12 10 -11 10 7 0 12 -4 25 -10 28
-5 3 -10 0 -10 -7z"/>
<path d="M8117 17190 c3 -11 9 -20 15 -20 5 0 4 9 -2 20 -6 11 -12 20 -14 20
-2 0 -2 -9 1 -20z"/>
<path d="M8161 17040 c0 -8 4 -24 9 -35 5 -13 9 -14 9 -5 0 8 -4 24 -9 35 -5
13 -9 14 -9 5z"/>
<path d="M5845 16970 c-3 -6 1 -7 9 -4 18 7 21 14 7 14 -6 0 -13 -4 -16 -10z"/>
<path d="M8180 16951 c0 -5 5 -13 10 -16 6 -3 10 -2 10 4 0 5 -4 13 -10 16 -5
3 -10 2 -10 -4z"/>
<path d="M5670 16906 c0 -2 7 -7 16 -10 8 -3 12 -2 9 4 -6 10 -25 14 -25 6z"/>
<path d="M8220 16856 c0 -8 4 -17 9 -20 5 -4 7 3 4 14 -6 23 -13 26 -13 6z"/>
<path d="M5328 16696 c-24 -18 -23 -22 15 -56 36 -33 53 -39 39 -14 -5 9 -7
25 -5 35 5 17 -5 24 -29 20 -4 0 -5 6 -2 14 7 18 4 18 -18 1z"/>
<path d="M8251 16620 c0 -37 2 -41 9 -22 6 13 6 31 0 45 -7 18 -9 14 -9 -23z"/>
<path d="M7096 16591 c-5 -7 -14 -10 -22 -7 -8 3 -14 2 -14 -2 0 -15 38 -30
90 -35 30 -3 47 -4 38 -1 -10 3 -18 10 -18 16 0 5 7 8 15 4 20 -7 19 4 -2 20
-21 16 -37 18 -28 4 12 -19 -26 -23 -39 -5 -10 13 -15 15 -20 6z"/>
<path d="M7214 16580 c0 -13 4 -16 10 -10 7 7 7 13 0 20 -6 6 -10 3 -10 -10z"/>
<path d="M6980 16581 c0 -16 38 -23 57 -11 15 8 13 9 -9 4 -18 -4 -28 -2 -28
5 0 6 -4 11 -10 11 -5 0 -10 -4 -10 -9z"/>
<path d="M7225 16550 c-19 -8 -19 -9 3 -9 12 -1 22 -5 22 -11 0 -5 6 -10 14
-10 7 0 19 -7 26 -15 6 -8 15 -14 18 -12 4 1 29 -19 56 -43 26 -25 53 -45 60
-45 6 0 15 -10 21 -22 5 -13 16 -23 24 -23 11 0 11 3 0 17 -12 14 -12 16 0 8
11 -6 13 -4 8 9 -4 10 -7 20 -7 22 0 3 -4 3 -9 -1 -5 -3 -16 3 -23 13 -8 12
-22 18 -37 15 -14 -2 -22 -1 -19 3 10 9 -33 53 -74 77 -21 11 -38 24 -38 29 0
10 -19 9 -45 -2z"/>
<path d="M7517 16411 c-3 -14 -1 -18 9 -14 16 6 18 19 5 27 -5 3 -11 -3 -14
-13z"/>
<path d="M8210 16382 c0 -7 -11 -12 -25 -12 -19 0 -135 -64 -135 -75 0 -1 20
1 43 5 57 8 142 68 123 87 -3 3 -6 1 -6 -5z"/>
<path d="M5501 16343 c-1 -17 4 -35 9 -38 11 -7 11 9 0 45 -8 24 -8 24 -9 -7z"/>
<path d="M7485 16350 c-3 -5 -1 -10 4 -10 6 0 11 5 11 10 0 6 -2 10 -4 10 -3
0 -8 -4 -11 -10z"/>
<path d="M7518 16320 c2 -16 8 -28 12 -25 4 3 19 -5 34 -16 14 -11 31 -17 37
-13 7 4 9 3 5 -4 -7 -12 32 -28 42 -17 8 8 -38 44 -56 45 -7 0 -10 5 -7 10 3
6 1 10 -5 10 -6 0 -8 5 -4 12 4 6 3 8 -3 5 -6 -4 -16 0 -23 8 -21 25 -37 18
-32 -15z"/>
<path d="M7487 16319 c7 -7 15 -10 18 -7 3 3 -2 9 -12 12 -14 6 -15 5 -6 -5z"/>
<path d="M5520 16262 c0 -21 14 -93 26 -131 3 -8 7 -11 10 -8 7 6 -15 127 -27
147 -6 12 -8 10 -9 -8z"/>
<path d="M5304 16178 c3 -10 1 -18 -4 -18 -5 0 -7 -6 -4 -14 3 -8 8 -36 12
-62 6 -40 11 -49 27 -49 26 0 34 44 11 57 -9 5 -16 19 -16 31 -1 12 -8 33 -16
47 -8 14 -13 17 -10 8z"/>
<path d="M5327 15997 c-7 -18 8 -41 21 -33 11 7 4 46 -8 46 -4 0 -10 -6 -13
-13z"/>
<path d="M5330 15938 c0 -7 4 -19 9 -26 7 -11 10 -10 15 3 3 9 4 21 0 26 -8
13 -24 11 -24 -3z"/>
<path d="M5304 15853 c-13 -13 -19 -14 -22 -5 -2 6 -8 12 -13 12 -4 0 -6 -7
-3 -15 9 -21 37 -19 52 5 15 25 9 26 -14 3z"/>
<path d="M6274 15680 c8 -19 19 -35 25 -36 7 -2 7 0 1 3 -5 2 -10 10 -10 17 0
7 -7 21 -15 32 -13 17 -13 15 -1 -16z"/>
<path d="M7078 15693 c7 -3 16 -2 19 1 4 3 -2 6 -13 5 -11 0 -14 -3 -6 -6z"/>
<path d="M5483 15598 c-58 -112 -64 -140 -34 -176 23 -26 97 -34 111 -11 11
17 -5 87 -42 182 -13 33 -20 34 -35 5z"/>
<path d="M6306 15597 c3 -10 9 -15 12 -12 3 3 0 11 -7 18 -10 9 -11 8 -5 -6z"/>
<path d="M6336 15553 c1 -16 3 -31 3 -35 1 -10 61 -40 61 -31 0 4 7 -2 15 -13
26 -38 81 -56 186 -60 65 -3 99 -1 99 6 0 9 -14 14 -33 11 -4 -1 -16 3 -25 8
-12 6 -23 5 -37 -5 -13 -10 -21 -11 -26 -3 -4 7 -15 12 -25 13 -33 3 -74 29
-74 45 0 12 -2 13 -9 3 -6 -10 -10 -10 -21 3 -11 13 -11 16 0 13 8 -2 15 5 18
14 2 13 -4 17 -27 16 -16 -1 -46 9 -66 21 -20 11 -37 21 -38 21 -2 0 -2 -12
-1 -27z"/>
<path d="M8625 15442 c-34 -6 -150 -45 -155 -52 -4 -6 -70 -19 -110 -22 -8 -1
-26 -9 -39 -20 -13 -10 -33 -18 -45 -18 -11 0 -66 -14 -121 -30 -55 -16 -120
-35 -145 -41 -25 -7 -53 -18 -62 -26 -9 -8 -20 -13 -25 -10 -9 6 -78 -11 -198
-47 -108 -33 -186 -55 -210 -60 -65 -14 -169 -42 -225 -62 -36 -12 -110 -32
-165 -44 -55 -12 -131 -31 -170 -42 -116 -34 -492 -127 -618 -153 -65 -13
-132 -31 -149 -40 -17 -8 -40 -15 -51 -15 -10 0 -113 -23 -226 -52 -133 -33
-217 -49 -233 -45 -17 5 -40 28 -67 68 -23 34 -41 65 -41 70 0 5 -16 23 -36
41 -20 18 -40 42 -46 53 -27 59 -74 115 -97 115 -11 0 -7 -65 10 -180 6 -41 9
-82 7 -90 -1 -8 2 -14 9 -13 7 2 46 -43 88 -100 134 -180 154 -199 169 -161 4
9 4 32 0 50 -7 36 4 130 13 120 9 -9 20 -146 11 -146 -4 0 -6 -6 -4 -12 3 -7
7 -26 11 -42 l6 -29 62 8 c34 4 71 7 81 7 11 -1 27 3 36 8 10 5 35 12 56 14
22 3 65 12 97 21 109 28 140 13 95 -48 -28 -37 -53 -95 -45 -103 3 -3 16 10
29 30 13 20 28 36 35 36 7 0 17 8 22 18 10 18 71 58 71 46 0 -3 7 -1 15 6 12
10 15 10 16 -1 0 -8 6 -2 12 12 9 19 18 25 37 23 76 -10 130 -13 129 -6 -3 19
3 22 21 9 18 -12 26 -12 58 -1 20 7 53 13 72 14 31 0 36 3 38 27 3 35 8 39 27
19 20 -19 20 -19 43 -5 13 8 17 20 14 37 -4 23 -2 24 21 18 15 -3 29 -1 32 5
4 6 13 8 20 5 8 -3 16 0 18 7 3 9 9 9 25 0 14 -9 23 -9 27 -2 4 5 12 8 18 6 7
-2 20 0 31 5 13 7 21 6 27 -3 7 -11 9 -11 9 1 0 21 49 38 83 29 19 -5 27 -4
27 5 0 9 15 13 48 12 33 -1 46 3 44 12 -2 10 2 10 17 0 16 -10 26 -8 55 7 19
10 33 23 30 27 -5 8 9 12 33 9 6 -1 14 8 18 19 6 20 25 26 38 14 4 -4 20 -8
37 -9 27 -2 30 0 24 18 -5 15 -3 19 8 14 20 -7 108 12 108 24 0 5 6 9 13 9 8
0 28 7 46 16 24 12 30 21 26 34 -5 14 5 27 36 49 23 17 45 28 50 25 5 -2 19 2
32 11 13 8 41 17 63 18 21 2 56 11 78 20 21 9 45 17 52 17 8 0 22 4 32 10 40
21 135 56 222 80 25 7 67 21 94 31 27 10 59 19 71 19 12 0 62 13 111 29 49 16
110 32 136 36 26 4 53 13 59 21 6 8 17 14 24 14 7 0 16 12 20 28 10 35 15 172
6 173 -17 4 -58 4 -76 1z m-1792 -783 c-4 -15 -8 -17 -14 -8 -8 14 -3 29 11
29 4 0 6 -9 3 -21z m-387 -99 c0 -11 -3 -21 -6 -21 -3 -1 -14 -3 -25 -4 -11
-2 -27 -6 -36 -9 -9 -4 -22 0 -30 10 -10 13 -11 16 -1 10 8 -5 21 -1 31 8 10
9 25 14 35 10 9 -3 16 -1 16 5 0 6 4 11 8 11 4 0 8 -9 8 -20z m264 10 c8 -5
11 -10 5 -10 -5 0 -17 5 -25 10 -8 5 -10 10 -5 10 6 0 17 -5 25 -10z m-299
-83 c-13 -13 -26 -3 -16 12 3 6 11 8 17 5 6 -4 6 -10 -1 -17z"/>
<path d="M5565 15174 c-22 -19 -43 -34 -46 -34 -17 0 -32 -70 -22 -98 15 -38
148 -184 187 -204 31 -16 53 -19 115 -15 100 5 202 25 222 43 8 8 21 14 27 14
7 0 12 4 12 8 0 4 -56 9 -125 9 -116 1 -127 3 -177 30 -61 33 -75 47 -84 88
-11 52 -46 159 -58 177 -11 15 -16 13 -51 -18z"/>
<path d="M6495 15020 c3 -5 12 -7 20 -3 21 7 19 13 -6 13 -11 0 -18 -4 -14
-10z"/>
<path d="M7630 14870 c0 -6 7 -10 15 -10 8 0 15 2 15 4 0 2 -7 6 -15 10 -8 3
-15 1 -15 -4z"/>
<path d="M8414 14567 c0 -25 5 -36 22 -44 14 -6 27 -7 36 -1 10 8 10 9 -2 5
-8 -2 -20 3 -27 12 -16 21 -16 34 0 25 6 -4 3 2 -7 14 -11 12 -20 22 -20 22
-1 0 -1 -15 -2 -33z"/>
<path d="M6797 14583 c-4 -3 -7 -11 -7 -17 0 -6 5 -5 12 2 6 6 9 14 7 17 -3 3
-9 2 -12 -2z"/>
<path d="M6263 14351 c-20 -17 -21 -20 -6 -25 9 -4 16 -5 17 -4 1 2 7 13 14
26 15 27 5 28 -25 3z"/>
<path d="M8560 14334 c0 -8 5 -12 10 -9 6 4 8 11 5 16 -9 14 -15 11 -15 -7z"/>
<path d="M6081 14288 c0 -10 -5 -18 -11 -18 -20 0 -61 -92 -84 -191 -14 -57
-31 -122 -39 -144 -18 -49 -27 -171 -28 -375 -1 -85 -1 -175 -2 -200 -1 -135
3 -350 9 -380 5 -33 7 -34 20 -15 8 10 14 26 14 35 0 17 34 43 44 33 10 -11 7
-34 -8 -48 -7 -8 -15 -12 -17 -10 -2 2 -4 -17 -4 -41 0 -29 -5 -48 -15 -54 -8
-5 -11 -10 -7 -10 4 0 -4 -11 -18 -25 -31 -28 -51 -95 -29 -95 8 0 11 6 8 15
-4 8 -2 15 4 15 12 0 34 -25 27 -32 -3 -2 2 -5 10 -5 11 0 12 4 5 11 -5 5 -10
17 -10 25 0 24 15 1 35 -50 15 -42 15 -49 2 -75 -24 -47 -26 -134 -2 -157 8
-8 12 -17 9 -20 -4 -3 -3 -11 1 -17 12 -19 22 6 24 54 1 35 4 64 13 154 1 6 5
12 9 12 4 0 6 30 5 68 -1 37 2 73 7 80 6 8 5 12 -2 12 -13 0 -5 66 9 85 12 15
0 66 -14 58 -6 -4 -6 0 2 9 16 20 5 49 -16 41 -9 -4 -14 -3 -10 2 4 4 3 14 -3
21 -11 14 -19 73 -24 184 -1 41 -6 86 -9 100 -12 43 -17 132 -8 126 5 -3 12
-29 15 -57 4 -28 10 -56 16 -63 5 -6 11 -27 14 -47 2 -20 9 -45 15 -55 18 -30
15 59 -3 102 -8 20 -17 56 -19 80 -2 25 -8 50 -13 57 -12 15 -17 255 -8 392 1
17 3 45 3 63 1 20 7 32 16 32 8 0 22 7 31 16 13 13 13 19 3 31 -13 16 -20 43
-11 43 3 0 11 -7 17 -15 10 -13 14 -11 30 16 11 19 14 29 6 24 -10 -6 -12 -4
-7 9 4 10 7 20 7 22 0 3 4 3 9 0 5 -3 9 4 8 17 0 12 4 31 8 41 6 14 5 17 -3
12 -6 -4 -17 -25 -23 -46 -7 -22 -16 -37 -20 -34 -5 3 -9 0 -9 -5 0 -18 5 -26
13 -23 4 1 7 -3 7 -9 0 -6 -7 -8 -16 -5 -9 3 -19 6 -24 6 -4 0 -7 11 -7 25 0
14 4 25 9 25 6 0 6 6 -1 14 -9 11 -7 23 9 52 11 21 20 44 20 51 0 6 5 13 11
15 6 2 9 15 6 28 -2 14 -5 17 -6 8z"/>
<path d="M8676 14160 c6 -23 34 -71 34 -59 0 3 -9 23 -20 45 -12 22 -18 28
-14 14z"/>
<path d="M6165 14011 c-3 -5 -1 -12 5 -16 5 -3 10 1 10 9 0 18 -6 21 -15 7z"/>
<path d="M8835 13430 c10 -11 20 -20 23 -20 3 0 -3 9 -13 20 -10 11 -20 20
-23 20 -3 0 3 -9 13 -20z"/>
<path d="M6052 13200 c0 -14 2 -19 5 -12 2 6 2 18 0 25 -3 6 -5 1 -5 -13z"/>
<path d="M6045 13071 c-3 -5 -1 -12 5 -16 5 -3 10 1 10 9 0 18 -6 21 -15 7z"/>
<path d="M8216 12821 c-9 -10 -34 -21 -55 -25 -21 -3 -44 -14 -52 -23 -11 -15
-11 -16 1 -5 8 6 29 12 47 12 26 0 33 -4 33 -19 0 -26 -9 -31 -60 -33 -27 -1
-45 4 -51 13 -7 12 -11 11 -26 -3 -11 -11 -13 -18 -5 -18 7 0 12 6 12 13 1 6
14 -3 30 -22 28 -32 31 -33 86 -29 43 4 62 10 75 26 9 12 22 22 28 22 11 0 21
32 19 63 -1 9 -8 17 -16 17 -9 0 -23 7 -32 15 -15 14 -19 13 -34 -4z"/>
<path d="M5940 12440 c0 -11 7 -23 15 -26 25 -10 17 -25 -10 -18 -32 8 -32 -5
0 -42 14 -16 23 -21 20 -12 -4 9 -1 25 5 35 10 16 11 16 6 1 -3 -10 -1 -20 4
-23 11 -7 7 59 -5 88 -10 24 -35 22 -35 -3z"/>
<path d="M6010 12391 c0 -5 5 -13 10 -16 6 -3 10 -2 10 4 0 5 -4 13 -10 16 -5
3 -10 2 -10 -4z"/>
<path d="M5931 12324 c0 -11 3 -14 6 -6 3 7 2 16 -1 19 -3 4 -6 -2 -5 -13z"/>
<path d="M9184 12206 c-16 -18 -28 -38 -26 -45 2 -6 -1 -11 -7 -11 -6 0 -11
-4 -11 -9 0 -19 41 3 46 25 3 13 10 24 14 24 4 0 10 11 12 25 3 14 4 25 3 25
-1 0 -15 -15 -31 -34z"/>
<path d="M5752 12163 c-7 -25 -11 -47 -9 -50 2 -2 10 17 17 42 7 25 11 48 8
50 -2 2 -10 -16 -16 -42z"/>
<path d="M9140 12106 c0 -8 -9 -18 -20 -21 -12 -4 -20 -15 -20 -28 0 -21 0
-21 23 3 27 29 41 60 27 60 -6 0 -10 -6 -10 -14z"/>
<path d="M5732 12065 c0 -16 2 -22 5 -12 2 9 2 23 0 30 -3 6 -5 -1 -5 -18z"/>
<path d="M5900 12062 c0 -11 -11 -24 -25 -30 -28 -13 -34 -35 -7 -30 9 2 16 9
15 15 -2 7 6 15 17 18 20 6 29 45 10 45 -5 0 -10 -8 -10 -18z"/>
<path d="M5721 12014 c0 -11 3 -14 6 -6 3 7 2 16 -1 19 -3 4 -6 -2 -5 -13z"/>
<path d="M5711 11924 c0 -11 3 -14 6 -6 3 7 2 16 -1 19 -3 4 -6 -2 -5 -13z"/>
<path d="M5932 11906 c5 -23 3 -27 -13 -23 -15 4 -19 0 -19 -20 0 -28 -18 -66
-28 -59 -4 2 -7 -15 -8 -37 -1 -102 -7 -177 -17 -241 -7 -44 -7 -71 -1 -73 10
-3 11 -134 1 -150 -3 -5 -3 -21 1 -34 5 -18 14 -24 35 -24 15 -1 27 3 27 7 0
4 -9 8 -20 8 -26 0 -25 8 2 30 20 15 21 20 8 35 -9 11 -10 19 -3 23 14 9 20
44 9 60 -4 7 -5 16 -1 20 3 3 10 1 14 -6 5 -9 11 -5 21 13 14 26 5 50 -9 26
-6 -10 -12 -9 -25 4 -19 19 -20 27 -6 41 7 7 8 19 1 37 -11 28 -6 36 21 32 9
-2 19 3 22 11 3 9 -1 14 -12 14 -9 0 -25 7 -35 14 -15 12 -16 16 -3 41 8 16
12 33 9 38 -3 5 1 13 8 18 11 7 11 9 -3 9 -9 0 -20 4 -23 10 -3 6 1 7 9 4 11
-4 16 0 16 11 0 11 5 15 15 11 15 -5 21 28 15 92 -1 12 3 22 8 22 12 0 3 48
-11 57 -6 4 -8 -4 -5 -21z m-48 -312 c3 -8 2 -12 -4 -9 -6 3 -10 10 -10 16 0
14 7 11 14 -7z"/>
<path d="M7421 11734 c0 -11 3 -14 6 -6 3 7 2 16 -1 19 -3 4 -6 -2 -5 -13z"/>
<path d="M7521 11741 c-11 -7 -9 -11 8 -20 21 -12 27 -6 13 16 -5 7 -13 9 -21
4z"/>
<path d="M5691 11654 c0 -11 3 -14 6 -6 3 7 2 16 -1 19 -3 4 -6 -2 -5 -13z"/>
<path d="M5910 11665 c0 -5 5 -17 10 -25 5 -8 10 -10 10 -5 0 6 -5 17 -10 25
-5 8 -10 11 -10 5z"/>
<path d="M5680 11567 c0 -36 4 -56 10 -52 13 8 13 75 0 95 -7 11 -10 -2 -10
-43z"/>
<path d="M7130 11510 c0 -5 5 -10 10 -10 6 0 10 5 10 10 0 6 -4 10 -10 10 -5
0 -10 -4 -10 -10z"/>
<path d="M7180 11492 c0 -12 7 -25 15 -29 25 -9 27 2 6 28 l-20 24 -1 -23z"/>
<path d="M7107 11466 c-6 -14 0 -26 14 -26 8 0 6 26 -3 35 -3 3 -8 -1 -11 -9z"/>
<path d="M5690 11425 c4 -25 10 -49 15 -53 4 -4 5 8 1 27 -3 18 -6 42 -6 52 0
11 -4 19 -8 19 -5 0 -6 -20 -2 -45z"/>
<path d="M7358 11361 c-9 -11 -20 -47 -24 -80 -6 -52 -3 -66 21 -118 15 -32
33 -71 40 -88 7 -16 23 -55 36 -84 13 -30 23 -59 22 -63 -2 -4 2 -7 9 -5 12 2
14 -4 17 -44 1 -15 6 -19 20 -14 15 4 18 1 14 -17 -2 -13 11 -54 31 -96 20
-40 36 -78 36 -85 0 -7 8 -23 17 -37 9 -13 18 -33 18 -44 1 -10 11 -27 23 -36
12 -10 18 -20 15 -24 -4 -3 -1 -6 6 -6 7 0 10 -4 7 -9 -3 -5 1 -15 10 -22 8
-7 22 -29 31 -48 18 -44 21 -163 4 -169 -9 -3 -9 -8 1 -20 10 -12 10 -14 1 -8
-9 5 -13 1 -13 -11 -3 -110 -11 -146 -54 -237 -20 -42 -36 -82 -36 -90 0 -9
-13 -30 -29 -48 -15 -18 -34 -50 -42 -71 -7 -21 -21 -45 -30 -53 -16 -14 -17
-8 -14 88 2 66 -2 114 -10 133 -6 17 -11 45 -10 63 1 18 -2 35 -8 39 -5 3 -5
8 2 12 7 5 8 16 1 37 -5 16 -12 42 -15 57 -3 15 -10 25 -15 22 -6 -4 -8 7 -5
27 4 21 -2 56 -16 93 -27 78 -39 126 -29 120 14 -9 21 11 25 70 3 37 1 53 -6
49 -6 -3 -8 -19 -5 -35 4 -21 0 -32 -17 -46 -14 -12 -21 -27 -19 -43 10 -90
14 -117 23 -135 5 -11 11 -63 13 -115 2 -52 8 -120 15 -150 14 -73 23 -292 10
-285 -9 6 -10 5 -14 -31 -3 -30 -44 -130 -77 -187 -32 -55 -33 -60 -15 -76 11
-8 22 -3 50 25 21 19 37 42 37 51 0 10 5 13 18 8 61 -24 373 -28 467 -5 75 17
165 19 181 2 12 -11 14 -7 16 30 0 24 1 48 1 53 -1 6 -21 69 -45 140 -25 72
-50 155 -57 185 -6 30 -14 64 -16 75 -18 78 -24 115 -25 150 -1 36 -2 38 -14
22 -13 -16 -14 -16 -20 7 -8 31 -38 49 -68 41 -31 -8 -74 -47 -83 -74 -3 -11
-11 -21 -16 -21 -6 0 -8 -4 -5 -9 3 -5 0 -11 -7 -14 -11 -4 -12 8 -4 61 4 37
14 73 20 81 9 12 9 13 0 7 -14 -8 -18 15 -5 28 4 4 8 20 9 34 1 15 6 51 11 79
9 56 0 90 -17 64 -5 -8 -8 -19 -6 -25 12 -41 14 -66 5 -66 -5 0 -10 12 -10 26
0 25 -28 86 -42 92 -4 2 -5 9 -2 17 3 7 0 16 -6 20 -7 4 1 17 22 35 25 23 28
28 13 27 -24 -2 -31 25 -12 45 12 12 10 19 -14 48 -16 19 -29 40 -29 47 0 17
-77 164 -117 223 -58 85 -91 187 -97 292 -2 43 -10 67 -31 98 -31 45 -43 49
-67 21z m359 -1286 c0 -8 -4 -15 -9 -15 -10 0 -11 14 -1 23 9 10 10 9 10 -8z
m-1 -102 c-4 -31 -23 -59 -34 -49 -3 4 31 86 35 86 2 0 1 -16 -1 -37z"/>
<path d="M7076 11362 c-3 -6 -1 -14 5 -17 15 -10 25 3 12 16 -7 7 -13 7 -17 1z"/>
<path d="M5714 11333 c2 -17 7 -36 10 -42 4 -5 2 -12 -3 -16 -12 -7 6 -65 20
-65 19 0 14 42 -11 106 -17 40 -19 43 -16 17z"/>
<path d="M7056 11321 c-14 -16 -15 -21 -3 -44 10 -20 17 -23 25 -15 9 9 12 8
12 -5 0 -20 23 -22 39 -3 9 11 8 15 -6 20 -15 6 -15 8 -3 16 10 7 11 10 3 10
-7 0 -13 8 -13 17 0 9 -3 13 -7 10 -3 -4 -12 -2 -18 3 -8 7 -17 4 -29 -9z"/>
<path d="M6636 11294 c-17 -12 -17 -14 -4 -14 9 0 20 5 23 11 11 17 2 18 -19
3z"/>
<path d="M9915 11265 c-38 -12 -90 -34 -114 -48 -35 -20 -53 -24 -86 -20 -34
4 -51 0 -83 -21 -31 -19 -48 -24 -75 -19 -40 6 -106 -27 -150 -77 -15 -16 -35
-30 -45 -30 -10 0 -25 -11 -32 -25 -7 -14 -18 -25 -23 -25 -11 0 -72 -51 -129
-107 -48 -49 -53 -77 -18 -107 15 -12 49 -46 74 -75 49 -55 56 -83 32 -129 -8
-15 -27 -54 -43 -87 -21 -42 -46 -73 -84 -103 -74 -59 -84 -67 -96 -69 -6 -1
-31 -15 -55 -32 -31 -21 -61 -31 -108 -36 -36 -3 -81 -11 -100 -16 -19 -4 -80
-11 -135 -14 -55 -3 -119 -8 -142 -11 -40 -5 -42 -7 -39 -33 3 -30 36 -91 48
-91 4 0 8 -7 8 -15 0 -14 44 -111 140 -308 24 -48 51 -93 60 -100 9 -7 22 -22
28 -33 10 -19 22 -22 114 -26 86 -5 136 0 307 28 113 19 228 34 257 34 72 0
84 6 84 44 0 56 30 148 84 261 66 136 71 159 52 226 -23 77 -9 264 40 554 8
50 17 121 19 157 3 74 13 91 95 179 66 69 85 71 173 16 39 -25 75 -42 80 -38
4 4 12 22 17 41 l10 33 -21 -21 c-24 -27 -30 -27 -60 -4 -13 10 -32 21 -41 25
-10 3 -18 10 -18 15 0 6 -20 15 -45 21 -25 6 -45 15 -45 20 0 16 57 51 83 51
14 0 28 4 32 9 11 19 89 23 133 8 32 -11 42 -12 42 -2 0 7 -21 15 -52 19 -76
9 -95 7 -173 -19z m-179 -107 c19 -21 19 -21 0 -14 -16 5 -17 4 -6 -9 7 -8 16
-12 21 -9 5 3 9 0 9 -5 0 -14 -27 -14 -35 -1 -4 6 -15 8 -25 5 -25 -8 -35 24
-13 41 24 18 27 17 49 -8z m-134 -200 c-7 -7 -12 -8 -12 -2 0 14 12 26 19 19
2 -3 -1 -11 -7 -17z"/>
<path d="M10116 11224 c-4 -9 -4 -19 -1 -22 2 -3 7 3 11 12 4 9 4 19 1 22 -2
3 -7 -3 -11 -12z"/>
<path d="M5854 11181 c1 -27 8 -56 15 -64 7 -9 9 -22 5 -28 -4 -7 -3 -10 2 -8
5 3 21 11 37 19 33 16 36 34 5 26 -13 -3 -17 -3 -10 0 6 3 12 10 12 15 0 6 -6
7 -12 3 -10 -6 -10 -4 0 8 10 13 10 18 -1 29 -7 8 -16 22 -20 32 -3 9 -13 17
-20 17 -11 0 -14 -13 -13 -49z"/>
<path d="M7036 11199 c-13 -16 -15 -24 -6 -33 8 -8 13 -7 20 4 7 11 13 12 35
2 51 -23 73 -15 59 22 -7 17 -44 22 -44 6 0 -15 -28 -12 -37 5 -7 13 -11 12
-27 -6z"/>
<path d="M5740 11191 c0 -6 5 -13 10 -16 6 -3 10 -15 10 -26 0 -10 5 -19 11
-19 6 0 8 7 5 16 -3 9 -6 24 -6 35 0 10 -7 19 -15 19 -8 0 -15 -4 -15 -9z"/>
<path d="M8995 11170 c3 -5 13 -10 21 -10 8 0 12 5 9 10 -3 6 -13 10 -21 10
-8 0 -12 -4 -9 -10z"/>
<path d="M6596 11135 c-3 -10 -2 -23 4 -29 15 -15 24 1 13 26 -9 20 -10 20
-17 3z"/>
<path d="M7008 11143 c-15 -4 -26 -23 -14 -23 2 0 12 -3 22 -7 12 -5 15 -3 9
6 -4 8 -2 17 6 22 15 9 6 10 -23 2z"/>
<path d="M6950 11113 c1 -27 1 -27 15 -9 19 25 19 36 0 36 -10 0 -15 -10 -15
-27z"/>
<path d="M9135 11121 c-2 -5 4 -11 15 -14 11 -3 20 -2 20 3 0 12 -28 21 -35
11z"/>
<path d="M6480 11110 c0 -5 5 -10 11 -10 5 0 7 5 4 10 -3 6 -8 10 -11 10 -2 0
-4 -4 -4 -10z"/>
<path d="M7030 11091 c0 -5 7 -12 16 -15 14 -5 15 -4 4 9 -14 17 -20 19 -20 6z"/>
<path d="M5793 11064 c0 -17 2 -22 7 -13 5 6 6 18 3 26 -8 19 -10 16 -10 -13z"/>
<path d="M5890 11060 c-7 -12 -7 -20 -2 -16 6 3 12 1 14 -6 3 -8 6 -7 10 3 3
9 3 22 -2 29 -6 9 -11 7 -20 -10z"/>
<path d="M6496 11044 c-15 -13 -25 -28 -22 -32 2 -4 -4 -14 -16 -21 -11 -7
-17 -8 -13 -2 3 6 -1 11 -10 11 -11 0 -15 -5 -12 -14 3 -8 -1 -17 -9 -20 -8
-3 -14 -11 -13 -18 3 -27 -1 -38 -15 -38 -21 0 -29 -17 -17 -37 9 -16 10 -15
11 7 0 18 3 21 12 12 13 -13 52 3 43 19 -4 5 0 9 7 9 8 0 29 14 48 31 19 17
27 28 18 25 -10 -3 -18 -1 -18 4 0 6 9 10 20 10 11 0 20 4 20 9 0 5 9 11 20
14 20 5 29 27 11 27 -5 0 -16 6 -23 14 -12 11 -18 10 -42 -10z"/>
<path d="M6997 11057 c-5 -13 0 -20 19 -27 15 -6 25 -17 23 -27 -3 -34 1 -45
15 -40 7 3 18 1 24 -5 6 -6 10 -1 10 16 0 15 -6 26 -14 26 -8 0 -14 7 -14 15
0 8 -6 15 -12 15 -8 1 -6 6 5 14 16 13 16 14 -5 19 -12 4 -25 1 -29 -5 -4 -7
-8 -6 -11 3 -3 9 -6 8 -11 -4z"/>
<path d="M5916 11021 c-4 -5 3 -7 14 -4 23 6 26 13 6 13 -8 0 -17 -4 -20 -9z"/>
<path d="M7157 11023 c-4 -3 -7 -16 -8 -27 0 -20 -1 -20 -8 -1 -7 18 -9 18
-26 -8 -16 -26 -16 -29 -1 -46 9 -9 13 -20 10 -24 -3 -3 -3 -11 1 -17 6 -9 10
-9 16 1 7 11 9 10 9 -3 0 -10 5 -18 10 -18 6 0 10 -6 10 -14 0 -7 7 -19 15
-26 12 -10 15 -10 15 2 0 8 -5 19 -11 25 -8 8 -8 13 0 17 6 4 11 0 11 -8 0 -9
6 -16 13 -16 33 0 64 -69 46 -101 -7 -14 -6 -17 4 -13 8 3 17 -2 20 -10 4 -10
1 -16 -9 -16 -11 0 -13 -6 -9 -20 4 -12 2 -20 -5 -20 -7 0 -5 -6 4 -16 18 -17
21 -28 6 -19 -5 3 -10 -2 -11 -12 0 -10 -1 -33 -2 -51 -2 -38 10 -42 23 -6 6
14 14 22 20 19 14 -8 13 -32 -2 -37 -15 -5 -1 -28 16 -28 10 0 12 15 9 58 -2
31 -5 101 -6 154 -1 54 -6 98 -11 98 -4 0 -6 6 -3 13 5 13 -15 47 -30 50 -4 1
-6 8 -5 15 2 8 -2 20 -9 28 -6 8 -9 17 -5 21 3 4 -14 19 -39 35 -50 31 -49 31
-58 21z"/>
<path d="M6990 11005 c0 -5 5 -17 10 -25 8 -12 10 -11 10 7 0 12 6 23 13 26 6
3 2 4 -10 4 -13 -1 -23 -6 -23 -12z"/>
<path d="M5810 10999 c0 -5 11 -32 25 -59 14 -27 25 -54 25 -59 0 -5 16 -33
35 -62 25 -39 35 -48 35 -32 0 11 -7 26 -15 33 -8 7 -15 21 -15 32 0 10 -5 16
-10 13 -11 -6 -14 0 -25 48 -3 18 -2 26 4 23 5 -4 13 -1 17 5 4 7 3 9 -2 6 -6
-3 -19 8 -29 24 -21 30 -45 46 -45 28z"/>
<path d="M7025 10900 c-4 -6 -2 -17 4 -23 15 -15 25 -2 13 19 -7 12 -11 13
-17 4z"/>
<path d="M6970 10890 c0 -5 5 -10 11 -10 5 0 7 5 4 10 -3 6 -8 10 -11 10 -2 0
-4 -4 -4 -10z"/>
<path d="M6949 10872 c6 -11 11 -38 11 -59 0 -25 3 -33 9 -25 4 8 12 14 17 15
18 4 -12 78 -34 85 -11 3 -12 0 -3 -16z"/>
<path d="M7063 10858 c-10 -12 3 -86 12 -76 3 2 1 18 -4 36 -7 22 -6 32 2 35
7 2 9 7 6 11 -3 4 -11 1 -16 -6z"/>
<path d="M6320 10840 c-7 -14 -7 -20 0 -20 5 0 10 6 10 14 0 8 6 17 13 19 9 4
9 6 0 6 -7 1 -17 -8 -23 -19z"/>
<path d="M6290 10825 c0 -16 -6 -25 -16 -25 -9 0 -18 -9 -21 -19 -3 -12 -11
-17 -19 -14 -8 3 -14 1 -14 -5 0 -14 -38 -22 -44 -8 -2 6 -5 -1 -5 -16 -1 -16
-5 -28 -10 -28 -4 0 -7 -13 -5 -30 2 -16 -1 -32 -6 -35 -6 -4 -8 -11 -4 -17 4
-5 -2 -8 -14 -6 -11 2 -29 -6 -41 -16 -12 -11 -21 -15 -21 -11 0 5 -6 0 -14
-11 -12 -15 -19 -17 -33 -8 -20 12 -49 65 -58 104 -6 32 -22 56 -31 48 -3 -4
6 -38 20 -75 14 -38 26 -76 26 -86 0 -10 7 -32 16 -49 10 -19 12 -33 6 -37
-12 -7 -53 -121 -48 -130 2 -3 -2 -37 -10 -76 -7 -38 -13 -91 -14 -117 0 -28
-5 -48 -11 -48 -7 0 -8 -7 -4 -17 17 -41 26 -105 31 -217 4 -112 24 -222 45
-256 7 -11 8 -6 4 16 -9 46 -3 386 7 460 6 42 -7 75 -27 68 -21 -8 -19 9 4 37
14 17 18 33 14 59 -3 19 -2 32 2 27 5 -4 14 6 21 22 9 22 18 29 33 26 23 -4
27 5 10 22 -8 8 -6 18 6 37 10 14 14 26 10 26 -4 0 -2 7 5 15 6 8 9 19 5 25
-3 6 3 10 14 10 22 0 29 16 10 22 -8 3 -2 20 15 46 15 24 30 41 34 38 5 -3 14
-1 22 4 11 7 12 11 0 24 -11 14 -10 16 5 9 14 -5 17 -3 12 9 -3 10 1 19 11 23
16 6 16 7 0 19 -10 7 -18 19 -18 26 0 9 6 8 19 -4 12 -11 21 -14 26 -7 3 6 -1
11 -9 11 -9 0 -16 4 -16 10 0 5 6 7 13 4 7 -2 21 2 32 10 14 11 16 15 6 16
-10 0 -8 5 6 18 30 26 54 102 32 102 -5 0 -9 -11 -9 -25z"/>
<path d="M6656 10807 c3 -10 9 -15 12 -12 3 3 0 11 -7 18 -10 9 -11 8 -5 -6z"/>
<path d="M6927 10729 c4 -13 8 -18 11 -10 2 7 -1 18 -6 23 -8 8 -9 4 -5 -13z"/>
<path d="M6035 10710 c3 -5 8 -10 11 -10 2 0 4 5 4 10 0 6 -5 10 -11 10 -5 0
-7 -4 -4 -10z"/>
<path d="M6020 10647 c4 -20 6 -38 3 -40 -2 -3 3 -7 12 -11 10 -4 14 -2 9 5
-4 6 0 15 7 20 11 7 9 14 -13 35 l-27 27 9 -36z"/>
<path d="M6917 10613 c-8 -21 -11 -39 -6 -41 5 -2 9 -15 9 -28 0 -16 -4 -23
-11 -18 -6 3 -3 -6 7 -22 26 -42 27 -42 20 -3 -3 19 -3 39 1 42 9 10 11 67 2
67 -4 0 -5 9 -2 20 9 33 -4 22 -20 -17z"/>
<path d="M6631 10583 c1 -27 -18 -95 -28 -102 -8 -6 -14 -71 -6 -71 20 0 61
174 43 185 -5 3 -9 -3 -9 -12z"/>
<path d="M7420 10590 c0 -5 5 -10 10 -10 6 0 10 5 10 10 0 6 -4 10 -10 10 -5
0 -10 -4 -10 -10z"/>
<path d="M7240 10515 c0 -8 4 -15 10 -15 5 0 7 7 4 15 -4 8 -8 15 -10 15 -2 0
-4 -7 -4 -15z"/>
<path d="M6880 10511 c0 -6 4 -13 10 -16 6 -3 7 1 4 9 -7 18 -14 21 -14 7z"/>
<path d="M7297 10483 c-8 -47 -6 -49 15 -13 13 23 14 31 4 40 -10 8 -15 2 -19
-27z"/>
<path d="M7737 10491 c-4 -17 -3 -21 5 -13 5 5 8 16 6 23 -3 8 -7 3 -11 -10z"/>
<path d="M7091 10484 c0 -11 3 -14 6 -6 3 7 2 16 -1 19 -3 4 -6 -2 -5 -13z"/>
<path d="M7269 10413 c-1 -10 -1 -27 0 -38 0 -11 -2 -14 -5 -7 -8 17 -21 15
-28 -4 -3 -9 -2 -12 5 -8 6 3 5 -3 -3 -15 -7 -12 -16 -21 -21 -21 -4 0 -3 -9
3 -20 13 -23 -1 -43 -38 -54 -12 -4 -20 -12 -17 -17 4 -5 0 -11 -7 -14 -8 -3
-13 -22 -13 -49 0 -50 12 -69 26 -43 6 9 16 17 23 17 7 0 23 19 36 43 12 23
29 49 35 57 25 30 45 156 29 181 -9 15 -24 10 -25 -8z"/>
<path d="M7075 10400 c-3 -5 -1 -10 4 -10 6 0 11 5 11 10 0 6 -2 10 -4 10 -3
0 -8 -4 -11 -10z"/>
<path d="M6558 10342 c-10 -2 -18 -8 -18 -14 0 -5 -9 -23 -21 -39 -30 -42 3
-27 36 18 29 37 29 41 3 35z"/>
<path d="M7041 10320 c-1 -28 -4 -32 -12 -20 -9 13 -10 13 -6 0 2 -8 0 -23 -5
-32 -5 -12 -5 -18 2 -18 5 0 10 8 10 18 0 14 2 15 10 2 14 -23 21 8 11 50 l-9
35 -1 -35z"/>
<path d="M6623 10305 c-6 -6 -7 -18 -3 -25 6 -9 10 -7 15 9 8 27 4 33 -12 16z"/>
<path d="M7086 10293 c9 -37 24 -53 24 -26 0 28 -10 53 -21 53 -5 0 -6 -12 -3
-27z"/>
<path d="M6191 10273 c0 -12 -6 -25 -12 -28 -5 -4 -9 -17 -7 -28 1 -12 -1 -28
-6 -35 -10 -17 -4 -23 12 -13 7 4 14 21 15 38 1 22 6 29 17 25 12 -5 13 -3 4
9 -7 8 -14 23 -17 34 -4 19 -5 18 -6 -2z"/>
<path d="M6696 10256 c4 -11 0 -16 -12 -16 -16 0 -17 -2 -4 -10 13 -9 13 -11
0 -20 -8 -5 -10 -10 -5 -10 6 0 5 -4 -2 -8 -6 -4 -13 -16 -15 -27 -2 -16 2
-20 27 -20 23 1 29 5 27 18 -2 11 2 15 13 11 8 -3 15 -2 16 2 0 5 2 17 4 26 2
10 -5 20 -16 23 -11 4 -18 14 -17 22 2 9 -3 18 -10 20 -7 3 -10 -1 -6 -11z"/>
<path d="M7062 10249 c-16 -24 -15 -24 8 -26 13 -1 20 4 20 17 0 27 -14 32
-28 9z"/>
<path d="M6015 10240 c3 -5 8 -10 11 -10 2 0 4 5 4 10 0 6 -5 10 -11 10 -5 0
-7 -4 -4 -10z"/>
<path d="M5993 10204 c-8 -22 4 -29 21 -11 14 13 14 16 0 21 -8 3 -17 -1 -21
-10z"/>
<path d="M6390 10149 c-7 -11 -9 -23 -6 -27 3 -3 6 0 6 7 0 7 4 10 8 7 4 -2 9
4 9 15 2 25 -4 24 -17 -2z"/>
<path d="M7100 10143 c0 -7 -6 -16 -14 -19 -8 -3 -17 -17 -20 -30 -4 -14 -11
-22 -16 -19 -6 3 -10 1 -10 -5 0 -7 7 -9 16 -6 9 3 22 6 30 6 8 0 14 10 14 24
0 13 7 26 15 30 8 3 15 12 15 19 0 8 -7 14 -15 14 -8 0 -15 -6 -15 -14z"/>
<path d="M6156 10103 c-6 -14 -5 -15 5 -6 7 7 10 15 7 18 -3 3 -9 -2 -12 -12z"/>
<path d="M7160 10063 c0 -17 -3 -38 -6 -47 -3 -9 -2 -16 4 -16 16 0 25 57 13
77 -9 15 -10 13 -11 -14z"/>
<path d="M6950 10050 c-6 -11 -9 -26 -7 -33 3 -7 10 1 16 17 14 35 7 47 -9 16z"/>
<path d="M7010 10051 c0 -10 19 -25 25 -20 1 2 -3 10 -11 17 -8 7 -14 8 -14 3z"/>
<path d="M6294 10025 c-4 -8 -10 -15 -16 -15 -5 0 -20 -11 -32 -25 -13 -14
-29 -24 -36 -23 -13 3 -21 -7 -51 -75 -19 -41 -20 -50 -8 -58 31 -19 50 0 63
63 3 15 13 33 21 42 8 8 15 19 15 25 0 6 7 11 15 11 8 0 15 7 15 15 0 8 9 19
20 25 21 11 27 30 10 30 -6 0 -13 -7 -16 -15z m-90 -91 c3 -8 2 -12 -4 -9 -6
3 -10 10 -10 16 0 14 7 11 14 -7z"/>
<path d="M7121 9824 c-11 -15 -21 -35 -21 -45 0 -10 -5 -21 -11 -24 -6 -4 -8
-13 -5 -21 3 -9 -2 -14 -14 -14 -11 0 -19 -5 -17 -12 1 -7 -3 -12 -10 -13 -17
0 -42 -36 -43 -59 0 -10 -10 -36 -22 -58 -18 -31 -20 -43 -11 -57 9 -14 9 -21
0 -30 -8 -8 -7 -11 6 -11 13 0 17 9 17 35 0 25 8 43 31 66 17 17 28 37 25 45
-3 8 1 17 9 20 8 4 15 12 15 20 0 8 4 14 9 14 10 0 74 160 67 167 -2 2 -13 -8
-25 -23z"/>
<path d="M6050 9730 c0 -11 -5 -20 -12 -20 -6 0 -8 -3 -5 -6 9 -9 37 15 37 32
0 8 -4 14 -10 14 -5 0 -10 -9 -10 -20z"/>
<path d="M6367 9703 c-4 -3 -7 -16 -6 -27 0 -19 1 -19 10 3 10 24 8 36 -4 24z"/>
<path d="M6000 9661 c0 -6 4 -12 8 -15 5 -3 9 1 9 9 0 8 -4 15 -9 15 -4 0 -8
-4 -8 -9z"/>
<path d="M5973 9578 c-27 -57 -45 -157 -49 -286 -6 -169 0 -224 28 -241 20
-12 21 -12 12 21 -4 18 -8 68 -9 111 0 42 -3 77 -7 77 -11 0 -10 64 1 76 10
10 21 96 23 172 0 26 5 52 10 59 5 7 8 17 6 24 -2 6 -9 0 -15 -13z"/>
<path d="M6927 9529 c7 -7 15 -10 18 -7 3 3 -2 9 -12 12 -14 6 -15 5 -6 -5z"/>
<path d="M6913 9497 c0 -7 9 -14 19 -14 16 -2 16 0 4 13 -18 17 -23 18 -23 1z"/>
<path d="M7278 9425 c-6 -28 6 -34 16 -9 8 22 7 34 -3 34 -5 0 -11 -11 -13
-25z"/>
<path d="M6962 9380 c0 -14 2 -19 5 -12 2 6 2 18 0 25 -3 6 -5 1 -5 -13z"/>
<path d="M7229 9373 c-14 -16 -49 -48 -77 -73 -29 -25 -52 -48 -52 -51 0 -4
11 -10 25 -13 17 -4 31 0 44 13 11 11 17 22 14 25 -4 3 0 6 9 6 8 0 21 11 28
25 7 13 16 22 21 20 4 -3 6 3 5 12 -2 10 1 28 5 41 11 28 9 28 -22 -5z"/>
<path d="M6161 9343 c1 -27 4 -39 6 -29 4 15 7 16 15 5 8 -11 9 -10 4 4 -3 10
-6 30 -6 43 0 13 -4 24 -10 24 -5 0 -9 -21 -9 -47z"/>
<path d="M7063 9237 c-4 -8 -17 -17 -28 -22 -19 -8 -19 -8 -2 -12 10 -3 27 3
38 13 15 14 21 14 34 4 8 -7 15 -9 15 -5 0 9 -31 34 -42 35 -4 0 -11 -6 -15
-13z"/>
<path d="M8221 9214 c0 -11 3 -14 6 -6 3 7 2 16 -1 19 -3 4 -6 -2 -5 -13z"/>
<path d="M6490 9140 c0 -5 5 -10 10 -10 6 0 10 5 10 10 0 6 -4 10 -10 10 -5 0
-10 -4 -10 -10z"/>
<path d="M6225 9130 c3 -5 8 -10 11 -10 2 0 4 5 4 10 0 6 -5 10 -11 10 -5 0
-7 -4 -4 -10z"/>
<path d="M6447 9105 c-13 -9 -15 -15 -7 -20 7 -4 19 -1 27 8 19 19 3 29 -20
12z"/>
<path d="M6436 9047 c3 -10 9 -15 12 -12 3 3 0 11 -7 18 -10 9 -11 8 -5 -6z"/>
<path d="M5971 9004 c0 -11 3 -14 6 -6 3 7 2 16 -1 19 -3 4 -6 -2 -5 -13z"/>
<path d="M5960 8933 c0 -13 5 -23 10 -23 13 0 13 11 0 30 -8 12 -10 11 -10 -7z"/>
<path d="M6010 8880 c0 -5 5 -10 10 -10 6 0 10 5 10 10 0 6 -4 10 -10 10 -5 0
-10 -4 -10 -10z"/>
<path d="M6351 8864 c0 -11 3 -14 6 -6 3 7 2 16 -1 19 -3 4 -6 -2 -5 -13z"/>
<path d="M6336 8835 c4 -8 10 -15 15 -15 5 0 9 -4 9 -10 0 -5 -11 -10 -25 -10
-21 0 -23 -3 -16 -22 5 -13 17 -24 27 -26 16 -3 17 -1 4 8 -13 9 -13 12 3 21
23 13 22 46 -3 59 -16 9 -18 8 -14 -5z"/>
<path d="M6435 8820 c-3 -5 -1 -10 4 -10 6 0 11 5 11 10 0 6 -2 10 -4 10 -3 0
-8 -4 -11 -10z"/>
<path d="M6126 8812 c-2 -4 -1 -14 5 -22 7 -12 9 -10 9 8 0 23 -5 28 -14 14z"/>
<path d="M8385 8721 c-39 -16 -225 -23 -695 -27 -261 -2 -484 -4 -495 -4 -39
-1 -47 -16 -51 -86 -2 -38 -9 -97 -15 -132 -6 -35 -9 -85 -5 -112 5 -38 0 -69
-25 -152 -17 -56 -33 -119 -36 -138 -3 -19 -11 -40 -18 -47 -7 -7 -16 -31 -20
-53 -9 -56 -32 -98 -63 -118 -15 -9 -33 -22 -40 -29 -7 -7 -18 -13 -24 -13 -5
0 -21 -9 -35 -20 -14 -11 -41 -20 -60 -20 -34 0 -61 -29 -35 -38 7 -2 12 -15
12 -29 0 -22 3 -24 23 -17 26 9 182 9 250 -1 29 -4 59 -3 75 4 15 6 59 13 99
15 39 2 77 7 83 11 29 18 124 -31 119 -62 -7 -42 -1 -46 64 -38 34 4 104 7
156 7 88 0 96 1 113 23 10 14 43 32 73 41 71 23 113 12 137 -36 10 -18 25 -38
35 -43 26 -16 142 -17 203 -3 50 11 55 15 61 45 8 40 15 47 57 54 33 7 53 -5
78 -49 10 -17 22 -19 145 -16 122 2 139 5 188 29 30 15 69 43 87 62 30 34 33
35 58 21 40 -21 80 -4 84 36 2 24 -5 37 -40 69 -24 22 -53 45 -63 51 -11 6
-20 20 -20 31 0 11 -5 26 -11 34 -6 8 -14 23 -18 35 -3 11 -16 26 -29 33 -31
18 -80 95 -169 274 -43 85 -98 216 -98 233 0 5 -11 25 -25 44 -14 19 -25 41
-25 50 0 16 -50 90 -60 89 -3 0 -14 -4 -25 -8z"/>
<path d="M6205 8669 c-11 -16 -1 -19 13 -3 7 8 8 14 3 14 -5 0 -13 -5 -16 -11z"/>
<path d="M6413 8641 c0 -11 5 -18 9 -15 4 3 5 11 1 19 -7 21 -12 19 -10 -4z"/>
<path d="M6866 8477 c3 -10 9 -15 12 -12 3 3 0 11 -7 18 -10 9 -11 8 -5 -6z"/>
<path d="M6372 8155 c-1 -40 12 -73 22 -56 4 6 3 17 -2 24 -6 7 -12 23 -15 37
-4 22 -4 22 -5 -5z"/>
<path d="M5991 8144 c0 -11 3 -14 6 -6 3 7 2 16 -1 19 -3 4 -6 -2 -5 -13z"/>
<path d="M6520 8085 c7 -9 15 -13 17 -11 7 7 -7 26 -19 26 -6 0 -6 -6 2 -15z"/>
<path d="M6430 8034 c0 -25 29 -54 48 -47 10 4 13 2 8 -5 -4 -7 -3 -12 2 -12
5 0 14 -11 20 -24 8 -18 16 -23 32 -19 19 5 16 11 -32 62 -57 60 -78 73 -78
45z"/>
<path d="M6626 7924 c-3 -8 -10 -12 -16 -9 -9 5 -14 -7 -12 -26 1 -4 -8 -5
-19 -2 -18 5 -19 3 -8 -21 7 -14 14 -24 17 -21 3 3 11 0 19 -7 11 -9 12 -7 7
7 -6 16 -5 16 24 1 17 -9 40 -16 50 -16 23 0 38 30 21 40 -8 6 -8 13 0 28 7
14 8 23 1 27 -5 3 -10 -1 -10 -10 0 -12 -6 -14 -26 -9 -19 5 -25 4 -20 -5 4
-6 2 -11 -3 -11 -11 0 -15 13 -12 38 3 17 -6 15 -13 -4z m26 -66 c-7 -7 -12
-8 -12 -2 0 14 12 26 19 19 2 -3 -1 -11 -7 -17z"/>
<path d="M6640 7816 c0 -2 7 -7 16 -10 8 -3 12 -2 9 4 -6 10 -25 14 -25 6z"/>
<path d="M10665 7172 c-35 -18 -75 -27 -135 -32 -67 -6 -100 -15 -150 -40 -63
-31 -153 -104 -156 -125 0 -5 -2 -16 -2 -22 -1 -7 -9 -13 -17 -13 -8 0 -15 -5
-15 -11 0 -5 5 -7 12 -3 8 5 9 2 4 -12 -18 -47 -28 -121 -22 -167 l7 -50 -48
7 c-26 3 -73 10 -103 15 -30 5 -104 10 -165 11 -60 0 -128 5 -150 10 -124 31
-351 -1 -447 -63 -40 -25 -48 -36 -48 -60 0 -30 0 -30 -47 -23 -263 36 -288
38 -362 26 -41 -7 -102 -24 -135 -38 -58 -25 -162 -100 -179 -128 -4 -7 -24
-21 -43 -30 -34 -16 -36 -16 -62 3 -55 41 -114 64 -178 70 l-65 6 -50 -52
c-27 -28 -49 -55 -49 -60 0 -5 -7 -12 -17 -15 -11 -5 -29 7 -57 37 -45 49 -74
67 -105 67 -21 0 -111 -58 -111 -72 0 -14 -24 -9 -88 17 -85 34 -145 33 -204
-4 -25 -16 -48 -33 -51 -38 -4 -6 -30 -8 -60 -5 -41 3 -64 -1 -97 -17 -24 -12
-48 -21 -53 -21 -5 0 -27 13 -50 30 -23 16 -68 39 -100 50 -71 25 -121 19
-192 -23 -70 -42 -125 -46 -200 -14 -134 56 -216 61 -388 22 -76 -18 -107 -7
-172 61 -50 52 -75 65 -230 108 -11 3 -58 8 -105 10 -110 7 -358 64 -426 99
-18 9 -65 28 -105 43 -41 14 -88 31 -104 37 -43 15 -61 43 -68 105 -6 48 -4
55 19 75 l25 22 -28 8 c-15 4 -91 11 -168 14 -136 6 -142 7 -205 41 -36 20
-86 53 -111 74 -49 41 -89 49 -111 22 -7 -9 -44 -48 -83 -88 -38 -39 -97 -102
-130 -141 -33 -38 -70 -81 -83 -95 -12 -14 -22 -28 -22 -32 0 -4 -26 -34 -57
-66 -75 -74 -113 -121 -113 -136 0 -14 41 -71 73 -102 12 -12 46 -47 76 -78
30 -31 73 -65 95 -75 98 -44 122 -53 170 -58 53 -6 76 -23 76 -55 0 -21 10
-35 56 -82 98 -97 236 -196 302 -216 20 -6 46 -15 57 -20 150 -64 344 -110
456 -108 60 1 73 -2 95 -23 13 -13 44 -35 69 -49 90 -52 215 -130 253 -158 77
-55 261 -63 394 -16 39 13 52 13 143 -2 91 -16 103 -16 135 -2 124 56 196 52
320 -18 64 -36 125 -42 190 -19 77 27 140 20 228 -25 89 -45 125 -48 185 -13
19 12 50 24 68 28 19 4 53 16 75 26 74 33 113 34 188 4 78 -31 156 -32 216 -1
23 12 63 18 120 20 95 4 131 18 216 83 111 86 111 85 204 91 93 5 89 7 132
-49 7 -9 34 -20 61 -24 41 -5 47 -4 47 12 0 23 51 100 79 120 28 19 80 10 118
-21 58 -47 131 -81 208 -98 192 -43 319 -60 400 -54 87 6 165 33 165 56 0 8
-14 33 -30 54 -33 43 -38 61 -16 53 9 -4 17 1 21 12 6 20 45 41 74 41 10 0 25
9 32 19 16 22 178 71 248 75 41 2 128 -15 152 -29 6 -4 27 -8 47 -10 20 -1 67
-6 103 -10 75 -9 108 5 135 56 28 55 86 70 183 47 44 -10 57 -9 86 5 42 20 44
37 13 122 -28 79 -21 118 32 173 30 31 55 46 98 58 31 9 81 30 110 46 65 37
207 88 244 88 26 0 28 3 28 38 0 38 -38 110 -135 258 -19 28 -40 64 -47 80
-22 51 -88 144 -102 144 -8 0 -30 21 -50 48 -92 122 -156 189 -170 175 -3 -3
-6 -1 -6 5 0 15 -5 14 -65 -16z m-1365 -533 c0 -5 -4 -9 -10 -9 -5 0 -10 7
-10 16 0 8 5 12 10 9 6 -3 10 -10 10 -16z"/>
<path d="M13740 5009 c-54 -29 -127 -96 -122 -112 1 -5 -2 -6 -7 -2 -15 8 -33
-32 -26 -56 5 -15 -1 -29 -17 -47 -43 -47 -78 -118 -78 -159 0 -52 28 -133 54
-155 23 -20 34 -19 135 6 65 17 106 39 152 85 121 118 149 147 149 157 0 6 7
17 15 24 9 7 28 38 42 69 15 31 32 62 39 68 18 19 36 111 25 132 -11 21 -73
27 -112 11 -27 -11 -27 -12 -13 -46 11 -27 12 -44 4 -74 -6 -21 -10 -42 -9
-47 2 -9 -4 -27 -37 -104 -13 -31 -24 -60 -24 -64 0 -16 -83 -105 -112 -120
-17 -8 -51 -15 -76 -15 -37 0 -50 6 -78 34 -33 33 -34 36 -28 93 4 33 17 76
31 100 32 56 112 145 124 137 17 -10 9 19 -8 33 -17 13 -16 14 5 8 21 -6 23
-5 13 13 -15 29 -15 30 19 37 16 4 32 11 35 16 12 19 -42 7 -95 -22z"/>
<path d="M13891 4991 l-23 -18 31 5 c17 2 31 9 31 15 0 5 9 2 20 -8 21 -19 28
-7 8 13 -17 17 -39 15 -67 -7z"/>
<path d="M12582 4688 c-9 -9 -86 -15 -265 -20 -319 -9 -446 -31 -547 -95 -106
-67 -104 -64 -96 -152 9 -108 5 -112 -120 -118 -54 -3 -121 -12 -149 -20 -53
-17 -140 -74 -155 -103 -10 -19 -88 -50 -125 -50 -12 0 -38 10 -56 23 -52 35
-195 54 -296 38 -129 -21 -327 -78 -384 -112 -64 -37 -169 -119 -169 -130 0
-5 -5 -9 -10 -9 -6 0 -25 -14 -42 -32 -40 -41 -152 -67 -285 -68 -50 0 -145
-9 -210 -21 -65 -11 -133 -22 -151 -24 -19 -2 -79 -11 -135 -20 -88 -15 -119
-16 -241 -6 -78 7 -164 19 -192 27 -59 16 -125 18 -174 4 -19 -6 -66 -15 -105
-21 -38 -6 -95 -22 -126 -35 -51 -21 -149 -38 -284 -48 -58 -4 -269 20 -296
35 -29 15 -185 26 -264 18 -58 -5 -237 -41 -395 -79 -136 -32 -192 -37 -355
-34 -93 3 -197 9 -230 14 -33 5 -112 12 -175 15 -63 3 -144 12 -180 20 -36 8
-112 21 -170 29 -58 8 -148 24 -200 35 -101 22 -157 26 -178 12 -9 -5 -12 -24
-10 -52 l3 -44 75 -37 c41 -20 109 -43 151 -52 41 -9 88 -23 103 -31 16 -8 36
-15 45 -15 9 0 27 -7 39 -16 12 -8 22 -12 22 -8 0 3 6 2 13 -3 6 -6 25 -13 41
-17 39 -9 95 -56 89 -73 -3 -8 -12 -12 -19 -9 -7 3 -16 1 -19 -4 -4 -6 2 -10
12 -11 14 0 15 -2 3 -6 -8 -4 -21 -12 -28 -20 -11 -11 -5 -13 35 -13 26 0 65
-3 86 -6 26 -5 37 -3 37 6 0 8 -8 10 -23 7 -25 -7 -41 1 -50 23 -4 12 -6 11
-6 -2 -2 -30 -21 -20 -21 11 0 31 25 49 34 25 6 -16 49 -19 75 -5 13 7 18 6
18 -4 0 -8 -3 -14 -6 -13 -25 2 -51 -4 -47 -11 3 -4 17 -6 31 -3 15 2 25 0 25
-7 0 -6 9 -11 20 -11 11 0 20 -4 20 -10 0 -12 -2 -12 -34 0 -14 5 -26 6 -26 1
0 -12 48 -25 81 -22 20 2 34 -6 53 -32 14 -19 26 -44 26 -55 0 -27 16 -28 32
-2 7 11 19 20 26 20 7 0 24 7 37 16 13 9 34 17 47 18 13 2 32 6 43 9 28 9 100
18 161 22 28 1 64 9 80 18 26 14 32 14 56 -1 27 -16 43 -40 33 -50 -3 -3 -11
0 -17 6 -15 15 -58 16 -58 1 0 -8 -5 -8 -15 1 -12 10 -15 10 -15 -3 0 -8 -5
-17 -12 -19 -16 -6 16 -52 47 -66 19 -9 32 -8 60 4 20 8 35 10 35 4 0 -5 -6
-10 -13 -10 -8 0 -13 -10 -13 -22 1 -18 -4 -23 -22 -22 -16 1 -24 -6 -28 -23
-5 -16 -11 -22 -23 -18 -38 12 -159 -167 -137 -203 2 -4 1 -14 -3 -21 -5 -7
-3 -29 4 -48 8 -24 10 -47 4 -67 -14 -48 -11 -64 14 -72 20 -6 86 -55 121 -89
15 -16 218 -113 251 -121 11 -3 50 -8 87 -11 58 -4 69 -2 87 16 12 12 25 21
30 21 15 0 25 -145 12 -181 -6 -18 -11 -45 -11 -61 0 -17 -7 -55 -16 -86 -14
-48 -15 -66 -5 -114 6 -32 13 -86 15 -120 2 -35 11 -76 20 -93 27 -51 18 -68
-25 -45 -10 6 -19 17 -19 25 0 8 -4 15 -10 15 -11 0 -13 -20 -4 -44 8 -22 67
-21 86 2 11 13 14 42 12 124 -2 58 -7 122 -12 142 -11 37 0 201 19 291 5 28
13 65 16 83 3 17 10 32 17 32 189 6 275 11 300 16 17 4 81 6 141 4 237 -8 492
-2 620 15 30 4 117 7 145 5 8 0 89 1 180 4 173 4 261 11 345 27 28 5 100 13
161 18 124 11 429 83 534 127 48 20 99 30 200 40 273 28 454 65 580 118 46 20
89 36 95 36 6 0 26 8 45 18 35 19 260 102 275 102 4 0 26 9 49 19 109 51 158
71 170 71 7 0 40 12 72 27 44 19 74 26 118 26 38 -1 75 6 105 19 25 11 89 34
142 52 79 26 110 43 167 89 38 31 75 57 81 57 7 0 24 12 39 27 14 14 56 37 92
49 36 12 117 45 181 73 64 28 122 51 128 51 6 0 11 5 11 10 0 6 7 10 16 10 17
0 157 67 219 104 48 30 151 81 182 90 12 4 32 21 44 37 42 59 9 151 -130 358
-92 138 -119 184 -114 194 2 4 -2 7 -9 7 -7 0 -33 30 -56 68 -41 63 -82 125
-99 147 -5 6 -21 27 -36 48 -29 38 -54 46 -75 25z m-5216 -1373 c7 -18 -12
-45 -32 -45 -21 0 -39 41 -23 51 22 14 49 10 55 -6z m-51 -45 c7 -11 -51 -43
-64 -36 -5 3 -12 -4 -16 -17 -4 -14 -8 -18 -12 -9 -3 8 7 27 23 43 28 29 58
37 69 19z m-185 -11 c0 -5 5 -7 12 -3 7 4 8 3 4 -4 -4 -6 -13 -9 -21 -5 -17 6
-20 23 -5 23 6 0 10 -5 10 -11z m-100 -309 c0 -11 -4 -20 -10 -20 -5 0 -10 -8
-10 -19 0 -10 -7 -24 -15 -31 -13 -10 -15 -9 -15 9 0 11 4 21 9 21 8 0 24 37
22 53 -1 4 4 7 9 7 6 0 10 -9 10 -20z"/>
<path d="M13965 4586 c-59 -53 -112 -96 -117 -96 -5 0 -20 -26 -34 -57 -22
-48 -23 -59 -11 -68 23 -17 37 -52 37 -94 0 -30 5 -43 19 -51 26 -14 34 -13
28 4 -6 16 34 37 52 27 6 -4 25 -6 41 -3 21 3 28 9 27 23 -1 10 -6 19 -12 19
-5 0 -26 5 -46 10 -50 14 -67 54 -50 119 7 25 19 53 27 62 8 8 14 23 14 33 0
9 4 15 8 12 5 -3 20 2 33 12 13 9 55 27 92 38 l68 22 16 -24 c19 -29 10 -43
-17 -26 -16 10 -18 9 -14 -3 4 -8 12 -15 20 -15 7 0 16 -16 20 -35 3 -19 11
-35 17 -35 6 0 2 -8 -9 -19 -26 -25 -64 -70 -64 -76 0 -28 115 83 135 132 26
60 22 81 -25 124 -23 22 -45 40 -49 40 -3 1 -15 3 -26 5 -11 2 -32 6 -46 10
-23 5 -41 -7 -134 -90z"/>
<path d="M1375 3791 c-11 -5 -42 -11 -70 -15 -49 -8 -147 -35 -215 -61 -19 -7
-55 -19 -80 -26 -55 -16 -131 -55 -162 -84 -13 -12 -42 -35 -64 -51 -70 -51
-204 -166 -314 -271 -19 -18 -37 -33 -41 -33 -4 0 -42 -44 -85 -97 -44 -54
-86 -105 -95 -113 -28 -26 -108 -147 -146 -222 -35 -69 -45 -97 -64 -185 -5
-24 -14 -64 -20 -90 -15 -66 -23 -263 -10 -243 6 8 13 33 17 55 3 22 10 45 14
50 4 6 11 30 15 55 4 25 11 50 15 55 3 6 17 39 30 75 23 63 140 303 160 327 6
7 11 22 13 33 2 12 35 56 73 97 38 42 70 80 72 85 5 12 108 114 123 122 28 14
56 32 110 73 31 23 92 60 135 83 42 22 82 44 88 49 28 23 96 55 155 73 35 11
75 27 87 35 13 8 25 14 28 14 3 0 11 1 18 4 31 10 177 44 223 51 194 29 417
-29 578 -151 42 -32 77 -63 77 -68 0 -5 8 -3 17 4 14 12 16 12 11 -2 -4 -10
19 -40 68 -89 41 -41 74 -79 74 -85 0 -6 9 -16 20 -23 11 -7 20 -8 20 -3 0 6
-4 12 -9 15 -5 3 -8 17 -8 31 0 14 -12 48 -27 76 -14 28 -26 59 -26 69 0 25
-139 177 -203 222 -18 12 -45 35 -61 50 -79 72 -446 147 -541 109z"/>
<path d="M13456 3551 c-4 -5 -4 -16 -1 -23 3 -8 -3 -34 -14 -59 -12 -24 -20
-60 -20 -79 l1 -35 9 30 c20 61 36 131 35 153 0 24 -2 26 -10 13z"/>
<path d="M14722 3420 c-7 -11 -12 -26 -12 -34 0 -20 -50 -26 -77 -9 -25 16
-28 13 -14 -15 13 -23 41 -111 46 -140 2 -13 7 -28 12 -35 5 -7 15 -30 22 -52
7 -22 19 -53 26 -70 44 -104 57 -175 45 -231 -6 -24 -5 -45 2 -57 7 -14 7 -18
-1 -12 -8 5 -11 -11 -10 -52 1 -33 -3 -68 -9 -79 -6 -11 -14 -48 -18 -82 -3
-34 -11 -62 -16 -62 -6 0 -7 -11 -4 -24 3 -14 2 -28 -4 -31 -5 -3 -10 -11 -10
-16 0 -6 5 -7 10 -4 6 3 10 1 10 -4 0 -6 -5 -11 -11 -11 -5 0 -7 -5 -4 -11 4
-6 -2 -19 -14 -30 -17 -16 -21 -31 -20 -77 0 -31 3 -50 6 -42 3 8 12 19 20 23
7 5 30 43 49 85 20 42 45 94 55 114 11 20 18 40 17 45 -1 4 5 22 14 38 8 17
19 48 23 70 4 22 10 44 13 50 4 5 7 30 8 54 1 24 6 46 11 50 5 3 10 20 10 37
-1 16 3 35 7 42 4 7 5 16 2 20 -3 5 -1 25 5 46 9 32 3 95 -15 161 -2 6 -6 27
-11 48 -4 20 -11 40 -17 43 -5 3 -6 14 -3 25 7 20 -18 113 -42 159 -7 14 -13
35 -13 48 0 23 -4 26 -50 36 -19 4 -29 0 -38 -14z m79 -587 c13 -16 12 -17 -3
-4 -10 7 -18 15 -18 17 0 8 8 3 21 -13z"/>
<path d="M7115 3330 c-3 -6 1 -7 9 -4 18 7 21 14 7 14 -6 0 -13 -4 -16 -10z"/>
<path d="M6841 3206 c-7 -8 -8 -17 -3 -20 6 -3 12 3 15 14 6 24 4 25 -12 6z"/>
<path d="M6790 3181 c0 -5 5 -13 10 -16 6 -3 10 -2 10 4 0 5 -4 13 -10 16 -5
3 -10 2 -10 -4z"/>
<path d="M6756 3157 c3 -10 9 -15 12 -12 3 3 0 11 -7 18 -10 9 -11 8 -5 -6z"/>
<path d="M2270 3149 c0 -9 3 -19 7 -22 3 -4 7 -36 8 -71 1 -35 5 -68 9 -74 3
-6 -1 -15 -10 -20 -15 -8 -16 -14 -5 -38 6 -16 12 -43 13 -59 2 -36 -10 -160
-18 -195 -3 -14 -7 -36 -9 -50 -1 -14 -12 -45 -23 -70 -11 -25 -28 -67 -38
-95 -10 -27 -26 -59 -36 -69 -10 -11 -18 -25 -18 -32 0 -7 -4 -14 -8 -16 -5
-1 -30 -31 -56 -66 -80 -104 -184 -167 -276 -166 -128 1 -250 82 -250 166 0
13 -6 41 -14 63 -14 42 -21 225 -8 225 5 0 14 -6 21 -12 10 -11 12 -9 9 7 -2
16 -12 21 -46 23 -23 2 -42 -1 -42 -7 0 -13 -33 -23 -54 -15 -9 3 -16 12 -16
20 0 9 -13 12 -43 11 -41 -2 -43 -4 -45 -35 -2 -22 2 -34 13 -38 12 -5 15 -22
15 -78 -1 -47 6 -94 20 -141 12 -38 24 -81 27 -94 10 -43 48 -88 118 -141 73
-55 102 -70 150 -75 17 -2 41 -7 55 -10 44 -11 128 -7 185 10 85 24 204 92
246 140 15 16 39 43 53 58 14 15 26 33 26 38 0 6 21 35 46 64 39 47 72 110 91
180 3 11 10 25 15 32 14 17 18 224 6 247 -7 14 -7 17 2 11 9 -6 10 1 5 26 -7
29 -12 76 -14 127 -1 7 -4 11 -9 9 -4 -3 -8 7 -8 21 -2 40 -36 125 -56 140
-10 7 -18 19 -18 25 0 7 4 6 10 -3 5 -8 10 -10 10 -5 0 6 -9 24 -20 40 -12 18
-20 24 -20 14z"/>
<path d="M13356 3126 c-3 -13 -9 -32 -12 -43 -5 -12 -4 -15 3 -8 11 10 28 75
20 75 -3 0 -8 -11 -11 -24z"/>
<path d="M6730 3104 c0 -16 2 -16 24 -8 22 8 20 19 -4 21 -11 1 -20 -4 -20
-13z"/>
<path d="M6689 3068 c-8 -16 -8 -24 3 -34 19 -19 52 3 43 28 -10 26 -34 29
-46 6z m34 -21 c-7 -11 -23 2 -23 19 0 12 2 12 14 2 8 -7 12 -16 9 -21z"/>
<path d="M6560 2853 c1 -5 9 -24 20 -43 17 -31 19 -32 20 -12 0 27 -17 62 -30
62 -6 0 -10 -3 -10 -7z"/>
<path d="M13088 2833 c7 -3 16 -2 19 1 4 3 -2 6 -13 5 -11 0 -14 -3 -6 -6z"/>
<path d="M1401 2761 c-13 -12 -21 -24 -17 -29 4 -4 13 0 19 8 9 11 30 15 75
14 73 0 70 16 -5 23 -39 4 -53 1 -72 -16z"/>
<path d="M6520 2773 c0 -7 11 -24 25 -39 14 -15 25 -22 25 -16 0 15 -49 70
-50 55z"/>
<path d="M6596 2750 c3 -14 10 -29 15 -34 14 -16 10 6 -7 34 l-15 25 7 -25z"/>
<path d="M6800 2732 c0 -5 7 -16 16 -23 14 -12 16 -11 13 5 -4 20 -29 35 -29
18z"/>
<path d="M6758 2723 c7 -3 16 -2 19 1 4 3 -2 6 -13 5 -11 0 -14 -3 -6 -6z"/>
<path d="M1365 2710 c-3 -5 -1 -10 4 -10 6 0 11 5 11 10 0 6 -2 10 -4 10 -3 0
-8 -4 -11 -10z"/>
<path d="M6932 2704 c-12 -8 -22 -22 -22 -30 0 -8 -4 -14 -10 -14 -5 0 -10 -4
-10 -10 0 -19 19 -10 26 12 3 12 16 30 28 40 26 22 18 23 -12 2z"/>
<path d="M6611 2673 c1 -17 66 -61 110 -76 35 -12 55 -13 92 -5 26 5 47 14 47
19 0 6 5 7 10 4 6 -3 10 1 10 10 0 12 -5 15 -22 9 -13 -4 -30 -7 -38 -7 -8 0
-21 -4 -28 -10 -9 -7 -16 -7 -24 1 -7 7 -22 12 -34 12 -13 0 -26 5 -29 10 -3
6 -13 10 -21 10 -10 0 -12 -5 -8 -12 10 -17 -28 12 -39 30 -9 13 -27 17 -26 5z"/>
<path d="M1345 2659 c-9 -14 -2 -20 14 -10 8 6 9 11 3 15 -6 3 -14 1 -17 -5z"/>
<path d="M6030 2435 c-7 -9 -10 -18 -7 -21 3 -3 1 -18 -4 -32 -7 -18 -6 -28 3
-34 10 -6 10 -8 1 -8 -8 0 -13 -14 -13 -38 0 -60 -52 -203 -68 -188 -2 3 -13
-6 -24 -19 -11 -14 -24 -23 -28 -20 -5 3 -18 -3 -28 -13 -10 -10 -24 -16 -32
-14 -7 3 -10 0 -6 -7 4 -6 3 -11 -3 -11 -5 0 -31 -20 -58 -45 -26 -24 -54 -45
-61 -45 -7 0 -15 -7 -18 -15 -4 -8 -16 -15 -28 -15 -14 0 -28 -10 -36 -25 -7
-14 -20 -25 -27 -25 -8 0 -18 -12 -24 -28 -6 -18 -23 -33 -49 -45 -22 -9 -40
-24 -40 -32 0 -8 -7 -15 -15 -15 -9 0 -19 -8 -22 -17 -9 -24 -39 -48 -91 -74
-24 -12 -41 -24 -38 -26 6 -6 -27 -34 -63 -53 -19 -10 -25 -10 -32 1 -7 11 -9
10 -9 -3 0 -10 -4 -19 -10 -19 -5 -1 -13 -2 -17 -3 -5 0 -19 -12 -32 -25 -19
-19 -25 -21 -32 -10 -7 11 -9 11 -9 -3 0 -24 -57 -68 -78 -61 -13 4 -13 2 3
-10 20 -16 20 -16 -2 -17 -12 0 -25 -5 -28 -10 -4 -6 -16 -8 -27 -4 -16 5 -20
3 -15 -9 4 -12 1 -14 -11 -10 -9 3 -14 3 -10 -2 11 -12 -47 -55 -74 -55 -30 0
-48 -17 -48 -47 0 -14 -6 -23 -15 -23 -23 0 -18 -26 6 -37 29 -12 35 -60 8
-68 -10 -4 -19 -12 -19 -18 0 -16 -38 -39 -50 -32 -6 4 -10 1 -10 -4 0 -6 -17
-21 -37 -35 -28 -17 -43 -21 -55 -14 -12 6 -18 5 -18 -3 0 -7 -9 -9 -25 -5
-14 4 -25 2 -25 -4 0 -5 -9 -10 -20 -10 -25 0 -25 9 -2 26 15 12 13 13 -12 4
-16 -6 -31 -8 -34 -5 -3 3 0 5 6 5 7 0 12 7 12 15 0 9 6 15 13 14 39 -5 44 0
75 64 2 4 -6 7 -18 7 -16 0 -20 -4 -16 -15 6 -16 -9 -21 -18 -6 -9 14 -49 1
-74 -25 -13 -13 -18 -24 -12 -24 6 0 8 -4 5 -10 -3 -5 -1 -10 5 -10 17 0 6
-25 -11 -26 -30 -2 -34 -5 -20 -13 8 -5 29 -7 46 -4 36 6 50 -7 40 -36 -4 -13
-12 -17 -25 -14 -11 3 -20 0 -20 -6 0 -6 -5 -11 -11 -11 -5 0 -7 5 -4 10 3 6
2 10 -4 10 -5 0 -11 6 -14 13 -2 6 -3 3 -1 -9 2 -13 -2 -21 -11 -21 -8 0 -11
5 -8 10 11 17 -21 -6 -36 -26 -7 -10 -19 -16 -26 -13 -7 2 -16 -2 -19 -11 -7
-18 10 -43 30 -43 8 0 14 -4 14 -10 0 -14 -12 -13 -49 6 -18 9 -34 14 -37 11
-8 -8 15 -57 28 -58 7 0 4 -4 -7 -8 -11 -5 -22 -8 -25 -7 -3 0 -18 -7 -33 -17
-26 -17 -27 -17 -44 3 -18 21 -39 28 -28 9 4 -6 -2 -13 -14 -16 -12 -3 -21
-10 -21 -16 0 -7 -4 -7 -12 1 -9 9 -18 5 -38 -19 -27 -29 -27 -29 -25 -6 3 23
1 24 -31 17 -28 -6 -34 -5 -39 11 -4 11 -11 19 -17 19 -5 0 -8 -7 -5 -15 6
-14 -7 -28 -28 -31 -5 0 -16 -2 -24 -2 -8 -1 -11 -8 -7 -18 3 -8 2 -12 -4 -9
-5 3 -20 0 -32 -7 -13 -7 -26 -11 -30 -10 -5 1 -8 -2 -8 -8 0 -5 9 -10 21 -10
14 0 19 -5 16 -14 -5 -11 1 -12 27 -5 39 11 99 -12 74 -27 -17 -11 -100 -54
-105 -54 -1 0 -16 14 -33 31 -21 23 -30 27 -30 16 0 -9 6 -20 13 -24 21 -13
29 -43 12 -44 -30 -3 -34 -4 -47 -18 -11 -12 -11 -13 1 -6 9 5 12 4 7 -3 -3
-6 -20 -10 -37 -10 -20 1 -35 -6 -45 -21 -9 -12 -19 -19 -24 -16 -5 3 -17 -3
-27 -13 -22 -23 -69 -49 -59 -33 5 7 1 9 -8 5 -9 -3 -16 -10 -16 -15 0 -5 -6
-9 -14 -9 -7 0 -19 -7 -26 -15 -7 -8 -17 -12 -23 -8 -5 3 -15 0 -21 -8 -18
-23 -70 -53 -87 -51 -18 3 -69 -42 -68 -60 0 -10 2 -10 6 0 6 15 43 16 43 1 0
-5 5 -7 10 -4 6 4 8 10 5 15 -9 14 27 21 43 8 14 -11 15 -10 8 7 -7 19 -6 19
10 3 13 -13 22 -14 48 -6 17 6 36 14 41 18 6 3 30 13 55 20 25 8 61 24 81 36
20 13 39 20 42 17 3 -3 21 5 39 18 18 13 37 24 43 24 23 2 157 66 167 80 4 5
10 7 13 3 8 -8 65 18 125 56 25 16 79 48 120 70 82 43 122 71 190 129 25 21
58 45 75 53 16 8 41 21 55 29 14 8 37 17 53 20 15 3 27 10 27 16 0 6 -4 8 -9
5 -5 -4 -8 2 -7 11 2 10 11 20 21 22 13 2 16 -1 12 -13 -7 -18 90 28 158 76
78 55 235 158 240 158 3 0 20 13 38 29 17 16 61 49 97 72 36 24 67 46 70 49 3
3 32 27 65 52 33 25 87 71 120 101 60 56 70 60 150 57 3 0 18 6 33 14 15 7 47
17 72 21 50 8 89 26 136 61 17 13 40 24 52 24 11 0 24 5 27 10 3 6 18 10 32
10 15 0 40 4 57 10 17 5 59 18 93 29 68 21 121 18 233 -14 30 -8 82 -22 115
-29 56 -14 171 -42 205 -52 8 -2 58 -15 110 -28 92 -23 174 -49 215 -66 11 -5
45 -19 75 -30 30 -12 73 -29 95 -38 47 -18 170 -75 235 -107 25 -13 79 -40
120 -60 41 -20 82 -43 90 -50 8 -6 42 -23 75 -36 33 -12 67 -28 75 -34 8 -7
67 -38 130 -70 63 -32 140 -76 170 -99 30 -24 78 -54 105 -67 28 -14 82 -42
120 -63 39 -22 102 -56 142 -77 39 -21 87 -46 105 -56 36 -19 90 -25 85 -8 -2
5 -26 24 -53 42 -27 17 -56 38 -64 46 -19 17 -107 77 -114 77 -3 0 -21 10 -39
23 -19 12 -71 45 -116 72 -44 28 -81 54 -81 58 0 8 -90 99 -202 203 -23 22
-65 64 -92 93 -28 30 -71 64 -99 77 -28 12 -53 26 -56 31 -3 5 -44 28 -91 53
-171 89 -193 100 -205 110 -7 6 -33 13 -59 16 -25 4 -46 10 -46 14 0 4 -12 11
-26 14 -14 4 -45 15 -68 26 -59 27 -68 28 -201 40 -212 19 -253 21 -259 12 -6
-11 -75 0 -121 19 -38 15 -288 15 -328 0 -37 -14 -190 -14 -204 0 -8 8 -39 8
-112 0 -146 -16 -166 -15 -197 13 -28 23 -28 23 -6 30 12 4 29 19 36 34 19 36
99 122 113 122 7 0 19 10 27 21 8 12 29 30 46 40 17 11 28 23 25 28 -3 5 4 12
15 16 11 4 18 10 15 15 -3 4 6 11 20 14 14 4 25 11 25 18 0 17 49 58 63 53 6
-3 18 8 25 25 8 17 18 28 23 24 5 -3 9 -3 9 1 0 9 -123 125 -132 125 -5 0 -18
9 -30 20 -16 15 -18 23 -10 33 8 10 7 21 -4 42 -20 38 -19 38 -34 20z m-310
-739 c0 -2 -7 -7 -16 -10 -8 -3 -12 -2 -9 4 6 10 25 14 25 6z m-716 -391 c-4
-8 -10 -12 -15 -9 -11 6 -2 24 11 24 5 0 7 -7 4 -15z m-254 -335 c0 -5 -5 -10
-11 -10 -5 0 -7 5 -4 10 3 6 8 10 11 10 2 0 4 -4 4 -10z m-790 -275 c0 -8 -4
-15 -10 -15 -5 0 -10 7 -10 15 0 8 5 15 10 15 6 0 10 -7 10 -15z m110 0 c0 -2
-9 -9 -19 -15 -14 -7 -22 -7 -27 2 -4 6 -3 8 4 4 6 -3 13 -2 17 4 6 10 25 14
25 5z m-355 -291 c-23 -17 -35 -18 -36 -1 0 6 -4 2 -9 -10 -10 -24 -25 -30
-35 -13 -3 6 -1 10 5 10 6 0 9 4 5 9 -6 10 12 15 59 17 27 1 28 0 11 -12z
m-151 -56 c-5 -8 -1 -9 12 -4 14 5 16 4 8 -4 -6 -6 -19 -8 -28 -4 -14 5 -15 9
-4 15 18 12 20 11 12 -3z"/>
<path d="M14650 2210 c0 -5 5 -10 10 -10 6 0 10 5 10 10 0 6 -4 10 -10 10 -5
0 -10 -4 -10 -10z"/>
<path d="M14605 2129 c-4 -6 -5 -12 -2 -15 2 -3 7 2 10 11 7 17 1 20 -8 4z"/>
<path d="M14536 2006 c-26 -45 -33 -76 -18 -76 5 0 14 17 20 39 7 21 19 44 27
51 17 14 20 30 6 30 -5 0 -21 -20 -35 -44z"/>
<path d="M5600 1910 c-13 -8 -12 -10 3 -10 9 0 17 5 17 10 0 12 -1 12 -20 0z"/>
<path d="M1 1538 c-1 -235 3 -369 9 -373 6 -3 10 -15 10 -26 0 -10 16 -42 35
-69 19 -28 32 -50 29 -50 -4 0 -1 -6 5 -14 7 -8 24 -38 39 -67 15 -30 33 -53
40 -52 6 2 12 -2 12 -8 0 -5 4 -7 10 -4 5 3 10 -1 10 -9 0 -14 11 -24 75 -71
16 -11 42 -30 58 -42 17 -13 36 -23 42 -23 7 0 20 -9 29 -19 10 -11 34 -27 54
-37 21 -9 49 -25 63 -35 14 -10 50 -27 80 -39 30 -12 77 -32 106 -46 28 -13
59 -24 67 -24 9 0 16 -4 16 -8 0 -9 64 -42 83 -42 7 0 34 -11 61 -25 27 -13
53 -22 58 -19 4 3 8 1 8 -4 0 -6 26 -18 58 -27 31 -10 122 -39 202 -65 80 -27
168 -51 195 -55 28 -4 93 -16 145 -28 85 -19 126 -21 380 -20 263 0 291 2 360
22 63 18 185 70 240 102 8 4 52 29 97 54 45 25 83 49 85 53 4 10 106 83 146
105 19 10 55 26 81 36 43 17 101 54 206 131 22 16 101 59 175 96 74 37 142 73
150 79 8 7 32 18 52 24 20 7 52 22 70 34 18 12 58 30 88 41 30 10 75 29 100
41 25 12 64 28 85 35 22 7 54 20 70 28 43 23 97 42 106 37 10 -7 79 23 79 34
0 11 45 63 117 137 29 29 49 55 45 58 -15 9 -74 -3 -92 -19 -9 -8 -22 -15 -30
-15 -10 0 -108 -52 -170 -90 -8 -5 -46 -27 -85 -48 -102 -56 -115 -63 -170
-98 -48 -30 -207 -116 -290 -157 -22 -11 -55 -32 -75 -48 -19 -15 -60 -40 -90
-55 -30 -15 -116 -62 -192 -106 -75 -43 -139 -78 -143 -78 -3 0 -26 -13 -50
-30 -24 -16 -46 -30 -50 -30 -3 0 -11 -5 -18 -10 -18 -16 -127 -84 -172 -107
-57 -31 -158 -62 -245 -78 -42 -7 -115 -23 -163 -34 -49 -12 -105 -21 -125
-21 -20 0 -57 -5 -82 -11 -47 -12 -331 -14 -384 -4 -17 4 -67 15 -111 25 -44
10 -100 21 -125 24 -130 16 -551 183 -705 281 -22 13 -47 28 -55 31 -64 28
-276 217 -318 284 -9 14 -31 43 -49 66 -18 23 -33 46 -33 52 0 6 -4 12 -8 14
-9 3 -63 94 -97 163 -11 22 -26 46 -32 53 -7 7 -13 18 -13 23 0 6 -20 52 -45
103 -25 52 -45 100 -45 108 0 8 -3 18 -7 22 -5 4 -9 12 -9 17 -1 5 -2 10 -3
12 -1 1 -4 33 -6 71 -3 38 -10 75 -15 81 -6 7 -14 39 -19 71 -6 40 -9 -60 -10
-308z"/>
<path d="M5255 1790 c4 -6 11 -8 16 -5 14 9 11 15 -7 15 -8 0 -12 -5 -9 -10z"/>
<path d="M5420 1770 c0 -6 7 -10 15 -10 8 0 15 2 15 4 0 2 -7 6 -15 10 -8 3
-15 1 -15 -4z"/>
<path d="M14325 1670 c-3 -5 -2 -10 4 -10 5 0 13 5 16 10 3 6 2 10 -4 10 -5 0
-13 -4 -16 -10z"/>
<path d="M14163 1532 c-71 -70 -168 -163 -218 -205 -110 -96 -105 -92 -149
-115 -20 -11 -47 -30 -60 -43 -13 -13 -41 -37 -62 -54 -21 -16 -54 -44 -74
-61 -19 -18 -73 -61 -120 -97 -47 -36 -96 -75 -109 -87 -14 -11 -35 -23 -48
-26 -13 -4 -23 -9 -23 -13 0 -4 -24 -18 -52 -31 -29 -13 -65 -31 -80 -42 -14
-10 -31 -18 -37 -18 -6 0 -63 -25 -126 -55 -62 -30 -118 -55 -123 -55 -5 0
-36 -13 -68 -30 -32 -16 -66 -30 -75 -30 -8 0 -30 -11 -49 -25 -19 -14 -39
-25 -45 -25 -5 0 -26 -8 -45 -19 -19 -10 -50 -22 -68 -26 -18 -4 -36 -13 -39
-21 -3 -8 -16 -14 -30 -14 -13 0 -43 -9 -65 -20 -23 -11 -52 -20 -64 -20 -13
0 -29 -9 -37 -21 -8 -11 -16 -16 -18 -10 -3 7 -12 7 -29 -2 -14 -7 -36 -14
-50 -14 -13 -1 -29 -8 -35 -16 -5 -8 -21 -16 -35 -19 -14 -3 -50 -13 -80 -21
-30 -8 -74 -18 -97 -22 -23 -3 -47 -12 -53 -20 -6 -7 -20 -10 -33 -7 -19 5
-20 3 -9 -10 10 -13 10 -17 0 -20 -7 -3 -18 2 -25 11 -10 14 -17 14 -60 2 -26
-7 -69 -17 -96 -22 -26 -4 -62 -12 -80 -18 -92 -28 -123 -35 -139 -33 -9 2
-46 -4 -80 -12 -53 -12 -121 -23 -198 -32 -8 -1 -17 -3 -20 -4 -19 -7 -60 -7
-245 1 -242 10 -258 12 -305 26 -19 6 -66 17 -105 23 -38 6 -92 17 -120 25
-27 7 -57 13 -65 14 -65 5 -102 10 -107 15 -4 3 -17 6 -30 6 -28 0 -101 17
-173 41 -30 9 -81 20 -112 23 -32 3 -83 13 -115 22 -32 9 -85 22 -118 30 -33
8 -94 26 -135 39 -41 14 -88 27 -105 28 -31 4 -94 23 -131 39 -11 5 -33 11
-50 14 -16 2 -40 6 -53 8 -14 2 -30 11 -36 20 -7 9 -22 16 -33 16 -11 0 -52
11 -90 25 -87 31 -98 31 -47 0 102 -64 334 -166 405 -180 19 -3 44 -10 55 -16
39 -18 270 -100 335 -119 36 -10 103 -30 150 -45 47 -14 110 -33 140 -41 30
-8 78 -21 106 -30 48 -14 120 -29 354 -72 128 -23 871 -26 913 -3 22 11 29 12
42 1 13 -11 18 -10 33 3 15 13 25 14 61 5 32 -8 60 -8 105 0 33 6 90 14 126
18 36 4 67 10 70 14 3 3 37 12 75 19 79 14 124 26 175 49 19 9 44 16 55 17 45
3 85 17 79 27 -4 6 -2 8 4 4 17 -10 248 51 307 81 11 6 34 17 50 24 17 8 49
26 71 42 23 15 45 27 48 27 12 0 223 106 261 131 22 14 63 40 90 57 28 18 55
35 60 40 6 5 15 11 20 13 21 9 316 213 370 256 68 54 115 93 144 120 20 18 41
33 47 33 6 0 17 11 24 25 8 14 24 28 37 31 13 4 23 10 23 15 0 5 8 9 17 9 9 0
13 3 10 6 -3 4 12 20 33 35 22 16 40 36 40 44 0 8 7 15 17 15 20 0 108 89 118
119 3 11 10 21 14 21 5 0 30 33 56 73 26 39 59 80 71 90 13 10 24 24 24 30 0
7 13 28 30 47 16 19 27 36 25 38 -2 2 5 13 16 25 21 23 25 37 9 37 -5 0 -67
-58 -137 -128z m-718 -642 c3 -5 -1 -10 -10 -10 -9 0 -13 5 -10 10 3 6 8 10
10 10 2 0 7 -4 10 -10z m-1525 -688 l-1 -27 -13 25 c-15 25 -12 45 5 35 5 -4
9 -18 9 -33z"/>
<path d="M4734 1226 c-10 -8 -17 -17 -14 -19 3 -3 16 3 29 14 27 22 15 26 -15
5z"/>
<path d="M4630 1190 c-9 -6 -10 -10 -3 -10 6 0 15 5 18 10 8 12 4 12 -15 0z"/>
<path d="M4367 1033 c-11 -11 -17 -13 -17 -5 0 7 -4 12 -10 12 -5 0 -10 -6
-10 -13 0 -20 27 -17 47 5 20 23 13 24 -10 1z"/>
<path d="M4511 1008 c-1 -20 14 -24 25 -6 4 6 3 8 -4 4 -5 -3 -13 0 -15 6 -3
8 -6 6 -6 -4z"/>
<path d="M4375 999 c-4 -6 -5 -12 -2 -15 2 -3 7 2 10 11 7 17 1 20 -8 4z"/>
<path d="M4300 975 c-7 -8 -27 -17 -45 -21 -26 -5 -32 -10 -27 -26 4 -15 7
-17 14 -6 7 10 8 8 6 -6 -4 -27 -28 -33 -28 -7 0 24 -4 25 -32 10 -15 -8 -18
-17 -14 -35 7 -27 -8 -33 -18 -8 -4 9 -9 14 -12 11 -4 -3 3 -18 15 -33 l21
-27 6 32 c7 34 17 37 53 17 27 -15 64 -10 40 5 -15 9 -21 39 -8 39 5 0 14 11
21 24 6 14 20 26 32 28 18 3 18 4 4 10 -9 4 -21 1 -28 -7z"/>
<path d="M4235 970 c3 -5 8 -10 11 -10 2 0 4 5 4 10 0 6 -5 10 -11 10 -5 0 -7
-4 -4 -10z"/>
<path d="M4306 943 c-4 -9 -1 -20 6 -25 9 -6 5 -7 -9 -3 -14 4 -23 2 -23 -4 0
-6 15 -11 33 -11 35 0 34 -2 28 53 -2 14 -29 7 -35 -10z"/>
<path d="M4246 837 c3 -10 9 -15 12 -12 3 3 0 11 -7 18 -10 9 -11 8 -5 -6z"/>
<path d="M3818 635 c-6 -14 -16 -25 -21 -25 -5 0 -5 -6 2 -13 8 -10 7 -14 -4
-14 -8 0 -15 4 -15 8 0 5 -7 6 -15 3 -19 -8 -20 -26 -1 -22 8 2 22 -6 31 -17
10 -12 15 -14 12 -5 -2 8 2 21 9 28 8 7 14 9 14 5 0 -4 4 -1 9 6 6 9 6 22 0
33 -6 10 -7 23 -4 28 3 6 4 10 0 10 -3 0 -11 -11 -17 -25z"/>
<path d="M3780 640 c0 -5 7 -10 16 -10 8 0 12 5 9 10 -3 6 -10 10 -16 10 -5 0
-9 -4 -9 -10z"/>
<path d="M3726 571 c-3 -5 1 -11 9 -14 9 -4 12 -1 8 9 -6 16 -10 17 -17 5z"/>
<path d="M3685 560 c-4 -6 -2 -17 4 -23 15 -15 25 -2 13 19 -7 12 -11 13 -17
4z"/>
<path d="M3656 534 c-8 -21 -8 -21 8 -21 8 0 11 8 8 19 -5 22 -8 23 -16 2z"/>
<path d="M3320 281 c0 -5 5 -13 10 -16 6 -3 10 -2 10 4 0 5 -4 13 -10 16 -5 3
-10 2 -10 -4z"/>
</g>
</svg>
